<?xml version="1.0" encoding="utf-8"?>
<!-- Generator: Adobe Illustrator 26.2.1, SVG Export Plug-In . SVG Version: 6.00 Build 0)  -->
<svg version="1.1" id="Layer_1" xmlns="http://www.w3.org/2000/svg" xmlns:xlink="http://www.w3.org/1999/xlink" x="0px" y="0px"
	 width="4000px" height="1000px" viewBox="0 0 4000 1000" style="enable-background:new 0 0 4000 1000;" xml:space="preserve">
<style type="text/css">
	.st0{fill:#B0967F;}
	.st1{fill:#010101;}
</style>
<g>
	<path class="st0" d="M1792.1,684.1c-12,2.9-22.1-0.6-32.1-3.5c-10.2-2.9-20.2-6.6-29.8-11.4c-3.4-1.7-6.8-3.2-10.1-5.1
		c-1.3-0.8-2.6-1.3-3.7-0.6c-1.3,0.8-0.8,2.4-0.4,3.7c1.9,6.1,4.3,12.1,5.2,18.5c3,20.1,0.3,39.4-9.9,57
		c-5.9,10.1-15.6,15-27.2,15.4c-7.5,0.3-17-5.8-20.5-12.7c-4.6-9.1-5.7-18.4-4.1-28.7c2.8-18.1,9.1-34.6,20.1-49.2
		c5-6.6,11.6-9.9,19.9-7.9c3.5,0.8,3.3-0.5,2.6-2.9c-0.3-0.9-0.5-1.9-0.5-2.9c-0.1-2.7,0-5.6,2.6-7.1c2.4-1.4,4.4,0.5,6.2,1.9
		c12.7,10.2,26.6,18.2,42.1,23.2c10.6,3.4,21.5,5.1,32.7,5.4c0.5,0,1.1-0.2,1.5,0c7.1,3.5,9.4-1.6,12.1-6.5
		c3.3-5.9,7.2-11.5,12.1-16.3c4.1-4,10.2-4,16.9-0.2c3.7,2.1,5.8,7.5,4.4,12.2c-2.4,8.2-7.5,15.2-11,23
		c-8.2,17.7-15.9,35.6-19.3,54.9c-0.9,5-1.4,10.2,2.6,14.6c2.1,2.3,3.8,2.5,6,0.1c5.7-6.5,10.8-13.3,15.5-20.5
		c9.4-14.2,18.6-28.4,26.9-43.2c9.1-16.2,19.5-31.7,26.1-49.3c2.1-5.5,6.9-8,12.8-6.7c3.8,0.8,6.1,4.5,5.8,10.3
		c-0.6,9.5-3.9,18.3-6.2,27.4c-6.9,27.7-13.5,55.4-19.5,83.3c0,0.2-0.1,0.3-0.1,0.5c0.1,2.4-1.4,5.7,1.2,6.9c2.3,1,4-1.9,5.6-3.7
		c10.1-11.6,17.8-24.9,26.2-37.7c12-18.4,24-36.8,36.5-54.8c7.4-10.7,15.4-21,24.2-30.6c3.3-3.6,6.6-7.4,10.9-9.8
		c11.2-6.3,20.7-3,24.2,11.6c2.6,10.9-0.7,21-4.5,31c-3.5,9.3-8.1,18.2-11.4,27.5c-2.5,7-6.3,13.6-7.6,21.1c-0.3,1.8-0.9,3.5,0,6
		c4.1-5.7,7.8-11.1,11.7-16.3c8.2-10.8,16.8-21.2,28.2-28.9c3.8-2.6,8-3.8,12.3-4.6c5.8-1.1,11.5,2.7,14,8.8
		c3.8,9.2,4.2,19,5.2,28.7c0.8,8.2,0.5,16.6,2.9,24.6c1.8,5.7,4.8,7.3,10.5,6.1c9.7-2,17.9-7.3,26-12.6
		c21.6-14.3,40.2-32.5,59.6-49.5c6.6-5.7,13.3-11.3,19.2-17.8c12.6-13.7,27.5-24.6,45.9-29.7c9.8-2.7,19.6-2.8,29.1,1.3
		c3.8,1.7,7.6,3.6,7.6,8.8c0,5.6-4.4,8.6-8.2,9.6c-17.7,4.9-31.6,16-45.5,27c-12.3,9.7-23.4,20.8-32.8,33.4
		c-4.1,5.5-7.6,11.3-9.5,18c-1.2,3.9-1.6,8.2,1.9,10.5c3.8,2.5,6.8-0.9,9.5-3.4c11.6-10.6,20.5-23.6,30.4-35.8
		c9.5-11.8,18.5-23.9,30.2-33.9c3.6-3.1,7.2-4,11.4-3.4c12.2,1.8,19.5,10.5,19.8,22.8c0.2,8.3-0.5,16.6-2,24.8
		c-0.3,1.5-1,3.7,0.8,4.6c1.6,0.8,2.4-1.3,3.4-2.2c21.5-18,44.6-33.2,72.5-39.3c4.7-1,9.4-2.1,14.2-2.4c3.1-0.2,4.6-1.8,6.2-4
		c7.1-9.6,14.7-18.9,25.1-25c10.1-6,21.1-6.4,32.3-2.3c9.4,3.5,10.2,15.8,6.3,22.5c-6.1,10.2-15,17.5-25.1,23.5
		c-5.1,3-10.3,6.1-15.8,8.3c-6.4,2.6-9.6,7.1-11.2,13.5c-1.9,8-2.6,15.9-0.7,24.1c2.6,11.2,15.9,16.6,26.9,15.1
		c23.5-3.2,44.5-13.2,65.1-24.3c14.2-7.7,27.8-16.1,41.1-25.1c8.1-5.5,14.9-12.5,22.4-18.7c2.3-1.9,4.5-4,7-5.5c1.3-0.8,2.9-3,4.6-1
		c1.5,1.7-0.3,3-1.3,4.3c-4.8,6.2-10.5,11.5-16.6,16.3c-12.4,9.7-24.9,19.4-38.4,27.5c-20.8,12.5-42.3,23.5-66.4,28.9
		c-21.4,4.8-41.6,3.7-59.3-10.3c-7-5.5-12-12.7-12.4-22.6c-0.5-12.5,2.3-24,8.3-34.8c1.6-2.9-0.5-2.8-2.1-2.5
		c-4.7,0.9-9.4,1.7-13.9,3c-22.2,6.5-41.6,18-59,33.1c-4.3,3.7-8.9,7.3-13.1,11.1c-2.9,2.6-4.3,5.8-5,9.4
		c-3.2,18.4-7.8,36.5-12.4,54.5c-5.5,21.5-12.6,42.6-20,63.6c-7.6,21.5-16.5,42.5-27.4,62.5c-6.1,11.1-12.9,22-22.1,30.9
		c-9.2,8.8-19.9,14.4-33.4,10.6c-6-1.7-11.1-8-11.6-14.3c-1.4-17,5.1-32.2,10.6-47.6c4.9-13.8,11.9-26.6,18.5-39.6
		c6.5-12.7,14.1-24.9,21.5-37.2c8.9-14.8,18.4-29.3,28.6-43.4c4.3-6,9.2-11.7,14-17.4c3.3-3.9,5.6-8,6.9-13
		c4.9-18.5,10.1-36.9,13.2-55.8c0.8-5,0.8-9.9,0.7-14.9c0-2-0.1-4.3-2.3-5.1c-2-0.7-3.5,0.8-4.8,2.1c-6,5.6-10.5,12.4-15.4,19
		c-11.9,16.2-23,33.1-37.8,47c-6.9,6.5-14.4,12.3-24.2,13c-6,0.4-10.3-3.6-13.5-8.6c-8.4-13-5.3-26.1-0.4-39.2
		c1.6-4.1,3.8-8,5.7-11.9c-0.4-0.8-0.9-0.4-1.2-0.1c-8.4,8.3-17.5,15.8-26.2,23.8c-6.8,6.2-14.5,10.9-21.8,16.2
		c-10,7.1-21.1,12.1-33,15.6c-10.3,3-21.8,0.5-27.8-7.7c-3.8-5.3-6.5-11.3-6.5-18.3c0.1-9-0.3-18-0.5-27c-0.1-3.7-0.6-8.2-3.5-9.8
		c-3.6-1.9-7.1,1.4-10,3.9c-12.7,10.9-22.1,24.4-30.3,38.9c-3.6,6.3-7.7,12.3-11.4,18.5c-2.9,4.8-14.5,3.9-16.8-1.2
		c-1.4-3-2.4-6.2-2.5-9.9c-0.9-16.7,4.8-31.9,9.9-47.3c5.3-15.7,10.6-31.4,15.6-47.2c0.8-2.5,2.1-6.6-0.7-7.7
		c-3.1-1.2-5.5,2.5-7.4,4.9c-8.4,10.5-16.4,21.3-23.8,32.5c-11.8,17.8-23.5,35.6-35.3,53.5c-10.3,15.6-20.2,31.5-32.8,45.3
		c-5.8,6.4-13.9,4.8-17.9-2.9c-3.5-6.8-4.4-14.2-5.6-21.6c-1.6-9.3,0.5-18.2,0.2-27.3c-0.1-3.3,1-6.7,1.7-10.1
		c0.2-1.1,1-2.6-0.2-3.1c-1.3-0.5-2.8,0.4-3.2,1.7c-1.1,3.7-3.6,6.5-5.5,9.6c-9.6,15.7-17.6,32.3-30.3,46c-4.4,4.8-9.5,5.2-15.1,3.7
		c-16.1-4.2-24.4-17.9-24.8-33.9c-0.2-9.4,1.4-18.4,3.8-26.9C1784.6,700.8,1786.9,692.2,1792.1,684.1z M2215.9,779.1
		c-0.4-0.1-0.7-0.3-1.1-0.4c-0.7,0.9-1.5,1.7-2.2,2.6c-16.6,23.4-31.9,47.5-45.9,72.5c-12.3,22.1-24,44.5-31.3,68.9
		c-2.6,8.6-4.4,17.4-2.8,26.5c0.6,3.5,1.7,7.3,5.4,8.3c3.4,1,5.8-1.9,7.9-4.3c7.2-8.3,12-18,16.6-27.8c15.9-33.9,28.2-69.3,40-104.8
		C2207.2,806.9,2211.5,793,2215.9,779.1z M1714,696.2c-0.1-7.7-0.1-13.4-2-19.1c-1.5-4.4-3.5-4.6-6.9-2.2
		c-5.1,3.5-8.4,8.4-11.2,13.8c-6.9,13.1-10.4,27.2-12,41.9c-0.6,5.2-0.9,10.6,0.7,15.8c1.8,6,5.3,7.2,10.5,3.7
		c3.3-2.3,5.9-5.3,8-8.7C1710,726.9,1713.7,711.1,1714,696.2z M2373.9,695.3c0.5-0.2,1.1-0.4,1.7-0.8c11.7-7,22.4-15.1,30.9-25.8
		c1.5-1.9,3.6-4.3,1.2-6.6c-2.2-2.2-4.7-0.6-6.8,0.8c-7.4,4.6-13.5,10.9-19.3,17.3c-3.3,3.7-6.7,7.4-8.9,12
		C2372.2,693.4,2370.9,695.1,2373.9,695.3z"/>
	<path class="st1" d="M577.5,445.6c-3.6,15.1-10.3,27.9-23.2,36.5c-15.1,10.2-34.7,9.8-49.4-2c-10.4-8.4-17.3-19.2-24.1-30.4
		c-6.7-11-11.8-22.8-17.3-34.4c-4.7-9.9-8.4-20.3-13.1-30.2c-7.7-16.5-15.1-33.2-26.6-47.6c-2.5-3.1-5.7-2.2-8.6-1.8
		c-2.4,0.4-1.3,3-1.3,4.6c-0.1,39.5-0.1,79,0,118.5c0,10.9,7.5,20.9,18.1,23.6c3,0.8,2.7,2.6,2.8,4.8c0.1,3-2,2-3.4,2
		c-28.3,0-56.7,0.1-85,0c-1.3,0-3.6,1.2-3.6-1.8c0-2.3-0.4-4.3,3-5.2c7.4-1.9,11.5-7.6,15.2-14c2.8-4.8,2.8-9.6,2.8-14.6
		c0-94.8,0-189.6,0-284.4c0-10.9-8.5-21.5-19.2-23.8c-3.1-0.7-1.4-2.8-1.7-4.3c-0.3-1.5-0.3-3.1,2.1-2.8c1,0.1,2,0,3,0
		c35.7,0,71.3-0.1,107,0c24,0.1,45.8,6.5,63.8,23c14.9,13.6,23.6,31,28,50.5c2.5,11.1,3.3,22.3,2.1,33.6
		c-3.4,31.7-16,58.3-43.3,76.6c-7.8,5.2-16.6,8.3-25.4,11c-3.9,1.2-2.4,1.9-0.9,3.6c10.1,11.7,17.2,25.2,23.6,39.1
		c8,17.5,14.9,35.5,23.9,52.5c5.6,10.5,12.2,20.3,20,29.2c2,2.3,4.7,4.3,7.5,5.4c5.1,2.1,11.2-2.5,11.6-8.5c0.2-2.9-1-7,0.8-8.5
		c2.3-2,6.4-0.5,9.6-0.6C576.6,445.4,577,445.5,577.5,445.6z M413.9,236.9c0,9.2,0,18.3,0,27.5c0,19.8,0,39.6,0.1,59.4
		c0,1.7-1.3,4.4,2.3,4.3c11.3-0.4,22.7,1.4,33.9-1.3c17.2-4.1,27.8-16.1,35.6-31.2c7.7-15,11.4-31.2,12.6-47.9
		c1.8-24.6-1.1-48.5-12.4-70.8c-8.3-16.3-20.4-28.6-39.5-31.1c-9.2-1.2-18.6-0.2-27.9-0.6c-3.8-0.2-4.7,0.9-4.6,4.6
		C414,179,413.9,207.9,413.9,236.9z"/>
	<path class="st1" d="M3226.8,138.4c1.7,0,3.2,0,4.7,0c36.1,0,72.3,0.1,108.4-0.1c9.1,0,18.5,0.9,26.8,3.6c9.9,3.2,19.6,8.3,28.1,15
		c17.3,13.6,28,31.2,32.5,52.5c2.9,13.8,2.3,27.7-1.9,41.2c-7.8,25.5-23.9,44.1-48.1,55.3c-1.7,0.8-2.9,2.4-5.1,2.5
		c-1.8,0.1-3.5,1.4-6,2.4c12.3,3.1,22.7,9.1,31.9,16.2c11,8.5,20.2,19.1,26.9,31.8c7,13.1,11,26.8,10.5,41.5
		c-0.7,19.2-8.2,36.1-19.8,51.3c-10.9,14.3-25.4,23.9-41.4,30.9c-8.8,3.8-18.3,7.7-28.2,7.3c-38.6-1.5-77.1-0.1-115.7-0.7
		c-1.2,0-2.9,0.6-2.8-1.7c0.2-1.8-1-4.4,1.9-5c10.5-2.2,14.3-10.8,18.6-19c0.8-1.5,0.5-2.9,0.5-4.4c0-96.9,0-193.9,0-290.8
		c0-8.2-8.9-22.8-19.4-23.1c-1.4,0-1.6-0.8-1.6-1.9C3227.6,141.9,3227.9,140.2,3226.8,138.4z M3298.7,397.8c0,26.3,0.1,52.7-0.1,79
		c0,3.7,0.7,5.4,4.8,5.1c5.3-0.4,10.7-0.4,16-0.1c15.8,0.9,28.5-5.4,39.2-16.4c15.5-16,24.1-35.3,26.1-57.4
		c2.8-31.3-6.6-58.5-29.6-80.4c-9.5-9-20.9-14.1-34.4-13.3c-5.6,0.3-11.3,0.3-17,0c-4.1-0.3-5.3,0.8-5.2,5.1
		C3298.8,345.5,3298.7,371.7,3298.7,397.8z M3298.7,225.8c0,25.1,0.1,50.3-0.1,75.4c0,4.3,0.7,6.3,5.6,5.8c4.6-0.5,9.3-0.4,14-0.1
		c20.5,1.3,35-8.4,45.6-25c10.7-16.7,15-35.3,15.1-55c0.1-22.5-5-43.5-18.8-61.8c-7.6-10.2-17.3-17.8-30.3-19.4
		c-8.5-1-17.3-0.1-25.9-0.5c-4-0.2-5.3,0.8-5.2,5.1C3298.8,175.5,3298.7,200.7,3298.7,225.8z"/>
	<path class="st1" d="M238.8,310.9c26.7,9.3,47.1,25.7,59.7,50.6c14.6,28.6,11.6,56.7-5.7,83.4c-10.8,16.7-25.9,28.4-43.9,36.6
		c-11.6,5.3-23.7,7.9-36.3,7.9c-36.2,0.1-72.3,0.1-108.5,0c-1.5,0-4.2,1.7-4.3-2.1c-0.1-2.6,0.2-4.2,3.4-4.9
		c5.4-1.1,9.2-4.9,12.1-9.3c3.6-5.4,5.8-11.1,5.8-18.2c-0.3-95.3-0.2-190.6-0.2-285.9c0-10.6-8.9-21.5-19.5-23.6
		c-1.4-0.3-1.5-0.9-1.5-2c0-1.6,0.3-3.3-1-5.1c10.2,0,20.1,0,29.9,0c27.7,0,55.3-0.4,83,0.1c32.1,0.6,57.8,13.8,75.6,41
		c20.1,30.6,17.8,72.3-4.9,100.9c-9.8,12.3-22.4,20.7-36,27.7c-1.1,0.6-2.6,0.5-3.8,0.9C241.4,309.4,240.3,310.1,238.8,310.9z
		 M170.9,398.3c0,26.3,0.1,52.7-0.1,79c0,3.4,0.7,4.7,4.3,4.5c5.6-0.3,11.3-0.3,17,0c15,0.8,27.2-5.2,37.7-15.3
		c37.2-36,36.8-102-0.9-137.6c-10.2-9.6-21.9-15.5-36.4-14.6c-5.6,0.3-11.3,0.3-17,0c-3.7-0.2-4.7,0.7-4.7,4.6
		C171,345.4,170.9,371.9,170.9,398.3z M170.9,225.9c0,25.6,0.1,51.3-0.1,76.9c0,3.2,0.7,4.4,4.1,4.2c6-0.3,12-0.3,18,0
		c15.5,0.6,27.8-5.7,37.4-17.4c14.4-17.4,20-37.9,20.6-60.1c0.6-23.4-4.5-45.2-18.7-64.3c-7.4-9.9-16.8-17.3-29.3-19.2
		c-9.1-1.4-18.3-0.1-27.4-0.6c-3.7-0.2-4.7,0.8-4.7,4.6C171,175.3,170.9,200.6,170.9,225.9z"/>
	<path class="st1" d="M3772.9,138.4c15.7,0,31.3-0.2,47,0.1c10.1,0.2,19.9,1.7,29.7,4.5c27.4,8.1,45.9,26.6,60,50.5
		c6.5,11,11,22.9,15,34.9c4.4,13.4,6.3,27.3,8.2,41.2c1.8,13.4,2.4,26.8,1.9,40.2c-1.5,39.8-9.5,78.1-28.2,113.6
		c-10.9,20.8-25,38.9-45.1,51.7c-14.2,9.1-29.9,14-46.7,14.2c-31,0.3-62,0.1-93,0c-1.4,0-4,1.4-4-1.9c0-2.2-0.7-4.2,2.9-5
		c7-1.7,11.2-7,14.9-13c3.1-5,3.3-10.4,3.3-16c-0.1-94.6,0-189.2-0.2-283.9c0-10.7-6.3-18.4-15.5-23.6c-0.8-0.5-2-1-2.8-0.7
		c-4,1-2.3-2.1-2.6-3.6c-0.4-2.1,0-3.4,2.8-3.2c3.8,0.3,7.7,0.1,11.5,0.1C3745.6,138.4,3759.2,138.4,3772.9,138.4z M3788.7,313.9
		c0,54.3,0,108.6-0.1,162.9c0,3.7,0.6,5,4.8,5.1c17.7,0.5,31.9-6.8,43.8-19.3c13.9-14.8,22.7-32.7,29.4-51.6
		c15.2-42.8,19.8-87.1,17.6-132.2c-1.2-24.8-5.2-49.2-13.7-72.8c-2.5-7-5.5-13.9-9.1-20.4c-14.6-26.7-35.6-42.6-67.6-40.3
		c-4,0.3-5.2,0.9-5.2,5.2C3788.7,204.9,3788.7,259.4,3788.7,313.9z"/>
	<path class="st1" d="M1358,445.3c1.1,0,1.8,0,2.5,0c10.6-0.1,10.9,0,7.1,9.8c-6.6,16.9-17.4,29.8-36.2,33.6
		c-14.3,2.8-26.7-1.7-37.2-11.5c-11.5-10.8-19.4-24.2-26.3-38.3c-5.8-11.8-11.1-23.7-16.5-35.6c-8.9-19.5-16.6-39.7-29.1-57.4
		c-2-2.8-2.8-3.6-5-0.3c-4.6,6.9-9.6,13.5-14.4,20.1c-2.2,3-3.2,6.2-3.1,10.1c0.2,27.8,0.1,55.6,0.1,83.5c0,10.2,7.7,20.3,17.6,23
		c2.6,0.7,3.6,2,3.4,4.8c-0.2,3.4-2.5,2.1-3.9,2.1c-28.2,0.1-56.3,0.1-84.5,0c-1.6,0-4,1-3.7-2.3c0.2-2-0.6-4,2.8-4.6
		c6.8-1.3,10.8-6.4,14.2-11.9c3-4.9,4.2-10.2,4.2-16.2c-0.2-95-0.2-189.9-0.1-284.9c0-10.2-10.3-22.9-17-24.1
		c-2.7-0.5-4.4-0.2-4.2-3.8c0.2-2.7,0.9-3.3,3.4-3.3c8.3,0.2,16.7,0.1,25,0.1c19.5,0,39-0.1,58.5,0.1c1.7,0,4.3-1.7,5.3,1.7
		c1.2,4.2-2,4.3-4.5,5.2c-8.6,2.9-16.4,13.2-16.4,22.1c0,62.3,0,124.6,0,186.9c0,0.6,0,1.2,0,2.8c7.9-11.3,15.2-21.8,22.6-32.4
		c13.7-19.6,27.5-39,41.2-58.6c10.1-14.5,20.1-29.1,30.2-43.6c5.9-8.5,11.9-17,17.9-25.5c6.7-9.5,13.4-18.9,20.3-28.3
		c2-2.8,1.3-5,0.1-7.8c-3.1-7-7-12.8-14.9-15c-2.6-0.7-4.4-2.5-3.7-5.8c0.6-3.4,3.2-1.8,4.7-1.8c15.2-0.2,30.3-0.1,45.5-0.1
		c1.3,0,3.3-0.9,3.1,1.8c-0.1,1.9,0.8,4.2-2,4.9c-8.5,2.2-13.5,8.7-18.1,15.3c-8.8,12.8-17.4,25.8-26.6,38.4
		c-24.4,33.4-47.3,67.9-71.7,101.4c-1.8,2.5-2.4,3.9,1.1,5.8c15,8.1,23.6,21.8,30.5,36.6c5,10.6,9,21.6,14,32.3
		c10.1,21.9,19.2,44.3,32.3,64.7c4.9,7.6,9.5,15.5,16.9,21c7,5.2,13,3,15.1-5.5C1359.1,452.2,1359.8,448.9,1358,445.3z"/>
	<path class="st1" d="M1030.8,489.3c-14.5,0-29,0-43.5-0.1c-1.3,0-3.7,1.2-3.6-1.8c0.1-2-0.7-4,2.6-4.9c10.2-2.5,16.2-9.8,18.8-19.5
		c1-3.7-0.8-8.3-1.6-12.4c-1.5-8.5-3.4-16.9-4.6-25.5c-1.4-10-3.9-19.9-5.7-29.9c-0.9-4.8-1.7-9.7-2.2-14.5
		c-0.3-2.9-0.7-4.4-4.3-4.4c-24.3,0.2-48.7,0.1-73,0c-3,0-3.9,0.9-4.4,3.7c-2.8,15.5-5.7,30.9-8.6,46.3c-1.8,9.7-3.4,19.4-5.4,29
		c-2.2,10.5,5.9,24.2,16.4,26.8c3,0.7,4.2,1.6,4,4.8c-0.3,4-3.2,2.2-4.8,2.2c-14.5,0.2-29,0.1-43.5,0c-1.4,0-4,1.3-3.8-2.1
		c0.1-2.2-0.3-4,2.8-4.8c10.5-2.6,18.4-15.1,19.4-25.4c0.6-5.9,2.2-11.8,3.3-17.7c1.9-9.8,3.7-19.6,5.6-29.4
		c1.9-9.8,4.4-19.4,5.7-29.2c1.3-10.1,3.9-19.9,5.6-30c1.3-8.1,2.8-16.2,4.8-24.2c2.4-9.4,2.7-19.2,5-28.6c3.7-15,5.3-30.3,8.9-45.3
		c2.2-8.9,3.2-18.2,5-27.3c3.1-15.5,6.7-30.9,9-46.4c1.7-11.4,4.8-22.6,6.1-34c0.4-3.8,1.9-6.9,7.7-6.8c22.1,0.6,44.3,0.2,66.5,0.3
		c1.6,0,4.1-1.3,4.3,2.3c0.2,3.1-1.5,4-3.8,4.6c-11.4,2.9-18.3,14-16.1,25.7c4.2,23,8,46.1,12.2,69.2c3.8,20.9,8,41.7,11.8,62.6
		c4.5,24.8,8.7,49.6,13.2,74.4c4.8,26.2,10.1,52.4,14.7,78.6c1.5,8.5,4.7,15.6,10.7,21.5c2.6,2.6,5.5,4.7,9.3,5
		c3.3,0.2,3.3,2.4,3.3,4.9c-0.1,3.4-2.6,2-4,2C1060.2,489.4,1045.5,489.3,1030.8,489.3z M951.3,163.8c-1.3,0.7-1.2,1.6-1.4,2.4
		c-2.8,15.2-5.7,30.4-8.5,45.5c-9.7,51.4-19.3,102.8-29.1,154.2c-0.5,2.4-0.1,3.3,2.5,3.3c23.8-0.1,47.6-0.1,71.4,0
		c2.3,0,2.9-0.8,2.5-2.9c-0.8-4.1-1.5-8.2-2.2-12.3C974.7,290.6,963,227.3,951.3,163.8z"/>
	<path class="st1" d="M1638.7,489.4c-7.7,0-15.3,0-23-0.1c-1.3,0-3.3,0.6-3-1.9c0.2-1.8-0.8-3.9,2.1-4.8c13-4,18.2-13.7,20-26.5
		c1-7.1,2.8-14.1,4.1-21.3c1.4-8.4,3.2-16.8,4.8-25.1c1.8-9.4,3.7-18.9,5.5-28.3c1.6-8.2,3-16.4,4.6-24.6c1.8-9.5,3.6-18.9,5.4-28.4
		c1.9-9.8,3.7-19.5,5.6-29.3c2.3-11.8,5.1-23.5,6.9-35.4c1.8-11.8,4.2-23.6,6.4-35.4c1.7-9.2,3.4-18.5,5.6-27.7
		c2.3-9.5,3.2-19.4,5.1-29c2.2-10.7,4.3-21.3,5.9-32.1c0.3-1.9,1.8-1.2,2.7-1.2c24,0,48,0,72-0.1c1.6,0,3.1,0,2.8,2.3
		c-0.2,1.6,0.6,3.1-2.3,3.9c-11.1,3-19.8,13.9-18.1,23c1.3,6.9,2.7,13.9,4.3,20.8c1.7,7.3,2.1,15.2,3.7,22.7
		c2.3,11.5,4.4,23,6.7,34.5c2,10.1,3.5,20.4,5.3,30.7c2.4,13.9,5,27.7,7.4,41.5c2.9,15.9,5.6,31.9,8.6,47.8
		c3.5,18.8,7.1,37.6,10.5,56.4c2.2,12.1,3.9,24.3,6.6,36.3c2.5,11.3,7.6,21,20.1,24.2c2.6,0.7,2.9,2.3,2.9,4.7c-0.1,3-2.1,2-3.5,2
		c-29.2,0-58.3,0-87.5,0c-1.2,0-3.4,1-3.2-1.6c0.1-1.9-1.2-4.2,2.2-5.1c9.3-2.5,14.3-9.4,17.9-17.7c2-4.8-0.4-9.4-1.3-13.7
		c-1.7-8.4-2.3-17-4.4-25.3c-2.6-10.3-3.7-20.8-6-31.2c-1-4.7-2.6-9.6-2.2-14.6c0.2-2.2-0.7-3.5-3.5-3.5c-24.8,0.1-49.7,0.2-74.5,0
		c-4.1,0-3.8,3.1-4.1,4.9c-4.3,25.3-9.3,50.5-14,75.7c-0.5,2.4-1.4,5.3,0.6,7.7c0.4,2,0.6,3.9-0.1,5.8
		C1642.5,476.8,1640.6,483.1,1638.7,489.4z M1700.3,163.8c-1.3,0.3-1.3,1.2-1.4,2c-12.4,66.1-24.8,132.2-37.3,198.3
		c-0.7,3.9-0.5,5.1,3.9,5c22.6-0.2,45.3-0.2,67.9,0c4.7,0.1,4.6-1.6,3.9-5.2c-7.6-40.8-15.1-81.7-22.6-122.5
		C1709.8,215.6,1705.1,189.8,1700.3,163.8z"/>
	<path class="st1" d="M3681.9,180.4c-6.3,0-11.9-0.1-17.6,0.1c-1.8,0-2.5-0.7-3.2-2.2c-4.3-10-8.9-20-13-30.1
		c-0.8-2-1.3-2.8-3.6-2.8c-33.2,0.1-66.3,0.1-99.5,0c-3.9,0-3.3,2.1-3.3,4.4c0,37.5,0,75,0,112.5c0,29.2,0.1,58.3-0.1,87.5
		c0,3.9,1,4.9,4.9,4.9c26-0.2,52-0.1,78-0.1c8,0,14.4-4.6,17.2-12.2c0.7-1.8-0.2-4.9,3.5-5c3.1-0.1,4.3,0.5,4.3,4
		c-0.3,11.5-0.1,23-0.1,34.5c0,1.4,0.9,3.8-2,3.5c-1.8-0.2-3.9,1.3-4.8-2.6c-2.2-9.6-9.7-14.6-19.6-14.6c-25.5,0-51,0.1-76.5-0.1
		c-4.1,0-4.8,1.2-4.8,5c0.1,36.7,0.2,73.3,0,110c0,4.1,1.2,4.9,5,4.9c32.2-0.1,64.3-0.1,96.5,0c3,0,4.6-0.6,5.8-3.7
		c3.8-9.7,8.2-19.2,12.2-28.8c0.6-1.3,1-2.1,2.7-2.1c5.8,0.1,11.6,0.1,18,0.1c-4.7,11.2-9.9,21.8-13.6,32.8
		c-2.6,7.8-6.7,9.4-14.5,9.4c-59.2-0.4-118.3-0.2-177.5-0.3c-1.9,0-4.8,1.9-5.7-1.7c-0.9-3.6,1.1-4.4,4.3-5.5
		c6.1-2.2,10.1-7.1,13.5-12.7c3-5.1,3.2-10.4,3.2-16c-0.1-94.1,0-188.3-0.1-282.4c0-11.1-6-18.8-14.6-24.8c-0.9-0.6-2.3-1.2-3.2-1
		c-4.5,1.2-2.8-2.2-3.1-4c-0.5-2.9,1.3-2.7,3.3-2.7c62.5,0,125,0,187.5-0.1c2.2,0,3.3,0.8,4,2.6
		C3670.8,153.8,3676.2,166.8,3681.9,180.4z"/>
	<path class="st1" d="M827.1,180.4c-6.4,0-12.4-0.1-18.3,0c-1.5,0-1.8-0.8-2.3-1.9c-4.5-10.3-9.2-20.6-13.5-31c-0.8-2-1.6-2-3.1-2
		c-33.3,0-66.7,0-100,0c-2.3,0-3.5,0.5-3.1,3c0.1,0.7,0,1.3,0,2c0,66.3,0,132.6-0.1,198.9c0,4,0.8,5.3,5.1,5.3
		c25.5-0.2,51-0.1,76.5-0.1c10.3,0,17.4-5,19.6-15.1c0.8-3.8,2.9-1.5,4.3-2c2-0.6,2.4,0.9,2.4,2.6c0,12.2,0,24.3,0,36.5
		c0,1.7-0.2,3.2-2.3,2.7c-1.6-0.3-3.7,1.5-4.5-2.4c-2-9.5-9.6-14.8-19.4-14.8c-25.5,0-51,0.1-76.5-0.1c-3.6,0-5.1,0.5-5.1,4.7
		c0.2,36.8,0.2,73.6,0,110.5c0,3.8,1.1,4.6,4.7,4.6c32-0.1,64-0.1,96,0c3.9,0,5.2-1.1,6.8-4.9c4-9.5,8.7-18.8,12.5-28.5
		c0.5-1.4,1.4-1.1,2.3-1.1c5.8,0,11.6,0,18.2,0c-4.8,11.3-10.1,21.8-13.8,32.9c-2.6,7.9-6.8,9.3-14.5,9.3
		c-59.3-0.4-118.6-0.2-178-0.3c-1.7,0-4.5,1.8-5.1-1.7c-0.5-3,0.5-4.3,3.9-5.4c6.3-2.1,10.5-7.1,13.9-12.8c3-5.1,3.2-10.4,3.2-16
		c-0.1-93.6,0-187.3,0-280.9c0-13.9-6.2-22.5-19.7-27.1c-2.5-0.8-1-2.8-1.2-4.2c-0.2-1.1-0.6-2.9,1.6-2.8c1,0,2,0,3,0
		c61.5,0,123,0,184.5-0.1c3.5,0,5.1,1,6.4,4.3C816.3,155.1,821.6,167.4,827.1,180.4z"/>
	<path class="st1" d="M1878.8,455.5c0-9.5,0.1-19-0.1-28.5c0-2.6,0.4-3.9,3.4-3.8c2.7,0.1,3.4,0.7,3.7,3.5
		c1.2,16.4,10.5,27.6,24.1,35.7c25.3,15.1,52.3,17.5,80.4,10.6c6.4-1.6,12.7-3.7,18.5-8c3.7-2.7,9.4-4.2,13.5-7.4
		c11.6-9.1,20.1-20.1,22.5-35.3c3.8-24.1-7.2-41.3-25-55.6c-12.5-10-27.4-15.6-42-21.3c-19.6-7.7-39.4-14.8-57.1-26.3
		c-12.3-8-22.2-18.5-30.1-31.2c-5.7-9.2-8.9-19.1-11.6-29.2c-1.9-7-1.4-14.6-1.3-22c0.6-29.8,13.7-53.5,35.9-72.4
		c15.5-13.3,34.3-19.9,54.2-23.8c14.4-2.8,28.7-2.4,43.2-0.2c11.8,1.8,22.4,6.1,33,11.1c4.6,2.2,4.7,1.9,5.9-3
		c0.5-1.9-1.2-5.8,3.5-5.9c3.8-0.1,5.1,0.7,5,4.8c-0.3,14.8-0.3,29.7,0,44.5c0.1,4.5-1.9,4.9-5.4,4.7c-1.6-0.1-2.3-0.5-2.4-2.3
		c-0.5-21.1-11.9-35-30.6-42.9c-7.8-3.3-16.3-5.3-25.2-4.7c-19.5,1.2-37.6,6.1-53.5,18.3c-25,19.2-30.9,53.5-13.7,80.3
		c10.1,15.7,23.9,27.1,40.1,36c14.1,7.7,29,13.6,43.7,19.9c19.2,8.1,37.2,18,51.1,33.9c11.9,13.7,18.8,29.6,21.3,47.7
		c3.1,21.9-2.3,41.9-13.5,60.1c-8.2,13.2-20.4,23.1-34.1,30.7c-15.9,8.8-32.8,13.9-50.9,15.1c-5.7,0.4-11.5,0.8-17.2,0.7
		c-9.7-0.2-19.2-2.4-28.6-4.9c-13.3-3.6-25.6-8.9-36.8-17.1c-2.2-1.6-4.7-3-6.5-5c-2.7-3-3.7-1.3-4.6,1.2
		c-2.7,7.2-5.6,14.4-5.7,22.2c0,3.3-1.9,2.7-3.8,2.8c-2.1,0.1-3.3-0.2-3.3-2.9C1878.9,475.5,1878.8,465.5,1878.8,455.5z"/>
	<path class="st1" d="M2762.9,183.5c0,92.1,0,184.3,0,276.4c0,9.5,8.4,20.1,18,22.5c3,0.8,2.7,2.7,2.8,4.9c0.1,3-2.1,2-3.5,2
		c-14,0.1-28,0.1-42,0c-1.3,0-3.7,1.2-3.5-1.9c0.1-2-0.6-4,2.6-5c10.6-3.2,18.4-14.3,18.4-25.3c0-95.6,0-191.3,0-286.9
		c0-11-8.7-22.3-19.4-24.8c-2.9-0.7-1.4-2.6-1.5-3.9c-0.2-1.2-0.9-3.3,1.7-3.2c0.7,0,1.3,0,2,0c16.5,0,33,0,49.5,0
		c2.3,0,3.7,0.4,5.1,2.8c6.7,11.4,13.3,22.9,19.5,34.6c11.8,22.3,24.4,44.2,36.3,66.5c6.3,11.8,12.8,23.5,19.3,35.2
		c15.8,28.5,31.6,57,47.4,85.6c6,10.9,12.1,21.9,18.1,32.8c0.7,1.2,1.5,2.4,3,3.3c0-1.4,0-2.8,0-4.2c0-74.8,0-149.6,0-224.4
		c0-10.4-5.6-17.8-13.7-23.7c-1.3-1-2.9-1.9-4.6-1.5c-3.9,0.8-3.4-1.7-3.7-4.1c-0.4-3.3,1.8-2.8,3.8-2.8c14.3,0,28.7,0,43,0
		c1.6,0,3.7-1,3.9,2.2c0.2,2.6-0.7,3.9-3.1,4.6c-11.2,3.4-18,12.6-18,24.3c0,104.6,0,209.3-0.1,313.9c0,2,1.6,4.9-1.6,5.9
		c-4.1,1.4-9-0.5-10.6-3.3c-6.6-12-13.5-23.8-20-35.9c-6.4-11.8-13.2-23.3-19.3-35.3c-6.1-11.9-13.2-23.3-19.7-35
		c-4.8-8.6-9.2-17.4-13.9-26c-4.5-8.2-9.2-16.2-13.7-24.4c-4.7-8.5-9.2-17-13.8-25.5c-4.7-8.5-9.4-16.9-14.1-25.4
		c-5.2-9.5-10.3-19-15.6-28.4c-6.2-10.9-11.9-22.1-18.3-32.9c-4.5-7.7-8.3-16-12.8-23.8c-2-3.4-4-6.8-5.9-10.1
		c-0.1-1.5,0.7-3.3-1.9-3.8C2762.5,180.8,2762.4,182.1,2762.9,183.5z"/>
	<path class="st1" d="M1411.1,138.4c1.7,0,3.4,0,5,0c61.5,0,123,0,184.5-0.1c3.7,0,5.4,1,6.8,4.5c4.9,12.4,10.2,24.7,15.7,37.6
		c-6.3,0-12.2,0-18.1,0c-1.3,0-1.6-0.4-2.2-1.8c-4.5-10.6-9.4-20.9-13.7-31.5c-0.8-1.9-1.7-1.7-2.9-1.7c-33.5,0-67,0-100.5-0.1
		c-2.3,0-3,0.8-2.8,2.9c0.1,0.7,0,1.3,0,2c0,66.3,0.1,132.6-0.1,198.9c0,4.5,1.2,5.4,5.5,5.4c25.3-0.2,50.7-0.6,76,0.1
		c10.8,0.3,17.6-6.9,19.6-15.3c0.9-3.8,2.9-1.5,4.3-1.9c2-0.6,2.4,0.9,2.4,2.6c0,12.2-0.1,24.3,0,36.5c0,2.2-0.8,3.2-2.9,2.7
		c-1.3-0.3-3.1,1.4-3.9-1.9c-2.2-10.1-9.2-15.3-19.4-15.3c-25.7,0-51.3,0.1-77-0.1c-3.8,0-4.7,0.9-4.7,4.7c0.2,31,0.1,62,0.1,93
		c0,10,8.1,20.4,17.9,22.7c2.9,0.7,3,2.3,3,4.7c0.1,3.3-2.2,2.3-3.7,2.3c-28.2,0-56.3,0-84.5,0c-1.4,0-4,1.3-3.9-2.1
		c0.1-2.1-0.3-3.9,2.8-4.8c10.1-3,18.2-14.4,18.2-24.9c0-95.6,0-191.3,0-286.9c0-11.1-6.2-18.5-14.7-24.6c-0.2-0.2-0.6-0.1-0.9-0.3
		C1412.3,143.8,1412.3,143.8,1411.1,138.4z"/>
	<path class="st1" d="M2105.6,180.4c0.8-7.8,4.9-13.9,7.6-20.6c2.3-5.9,4.7-11.8,7.2-17.6c1.2-2.6,2.6-3.9,5.7-3.9
		c65.5,0.1,131,0.1,196.5,0.1c2,0,3.6-0.2,4.7,2.4c5.4,13.1,11,26,16.7,39.6c-6.4,0-12.3,0.2-18.2-0.1c-3.2-0.2-3.1-3.7-4-5.7
		c-3.9-9-7.6-18.1-11.8-26.9c-0.8-1.6-1.1-2.3-2.9-2.3c-18.3,0.1-36.7,0.1-55,0c-1.9,0-2.7,0.6-2.6,2.5c0.1,1.3,0,2.7,0,4
		c0,102.1,0,204.3,0,306.4c0,11.2,7.2,20.8,18.1,24.1c2.3,0.7,3.2,2,3.1,4.6c-0.1,3.3-2.3,2.2-3.8,2.2c-28.5,0.1-57,0.1-85.5,0
		c-1.5,0-3.9,1.2-3.8-2.1c0.1-2.2-0.2-4,2.9-4.6c8.8-1.8,13.3-8.6,17.2-15.9c1.8-3.3,1.8-7,1.8-10.8c-0.1-101.5-0.1-202.9,0.1-304.4
		c0-5.3-1.5-6.2-6.3-6.1c-16.7,0.3-33.3,0.2-50,0.1c-3.3,0-4.7,0.9-6,4.2c-3.9,9.6-8.4,19-12.5,28.5c-0.7,1.6-1.5,2.4-3.2,2.4
		C2116.3,180.4,2111,180.4,2105.6,180.4z"/>
	<path class="st1" d="M2639.7,489.3c-14.2,0-28.3,0-42.5,0c-1.3,0-3.7,1.2-3.6-1.9c0.1-2.2-0.8-4.5,2.9-5c5.5-0.8,9.5-4.8,12.3-9
		c3.4-5.1,6-10.7,6-17.6c-0.3-94.6-0.2-189.2-0.2-283.9c0-10.4-4.9-18.3-12.6-24.7c-1.1-0.9-2.9-1.4-4.4-1.4c-4,0-4.3-2.2-4-5.3
		c0.4-3.9,3.3-2,4.9-2c27.5-0.1,55-0.1,82.5,0c1.5,0,4.2-1.8,4.7,1.7c0.4,2.9-0.7,4-3.6,4.9c-10.1,2.9-17.4,13.1-17.4,23.7
		c0,96.6,0,193.2,0,289.9c0,11.1,7.5,21,18.3,23.8c3.1,0.8,2.7,2.7,2.8,4.9c0.1,3-2.1,2-3.5,2C2668,489.4,2653.9,489.3,2639.7,489.3
		z"/>
	<path class="st0" d="M1638.7,489.4c1.9-6.3,3.7-12.6,5.7-18.9c0.6-2,0.5-3.9,0.1-5.8c3.8-2.5,3-6.9,4.3-10.4
		c5.4-14.6,10.5-29.3,16.9-43.5c3.5-7.8,7.9-15.2,13.3-21.9c4.6-5.6,11.1-6.9,16.9-3.7c2.8,1.5,3.7,3.6,2.6,6.6
		c-2.4,6.9-4.9,13.7-7.4,20.6c-0.8,2.1-2,3.5-4.4,3.1c-3.1-0.5-4.3,1.1-5.2,3.9c-6.3,19.6-12.8,39.2-19.2,58.8
		c-0.5,1.5-0.6,2.9-0.6,4.4c-1.3,2.4-2.4,4.9-1.9,7.8c-4.1,4.7-4.1,11-5.7,16.6c-6.5,22-12.3,44.2-18.5,66.3
		c-3.7,13.1-7.3,26.3-11.1,39.4c-9.9,34.2-19.6,68.5-30.4,102.4c-9,28.3-19,56.2-30,83.8c-6,15.3-12.7,30.2-19.5,45.1
		c-5.2,11.3-11.2,22.2-17.2,33.1c-0.6,1.1-2,2.2-1,3.5c1.1,1.3,2.6,0.2,3.7-0.1c12.3-3.9,24.8-7.2,37.3-10.3
		c11.8-2.9,23.8-5.3,35.8-7.7c25.7-5.1,51.5-9.1,77.6-11.8c29.2-3,58.5-3.6,87.7-2.1c28.1,1.5,55.9,5.4,83.2,12.8
		c14.8,4,29.2,9,43,15.6c3.5,1.7,6.2,4.4,8.1,7.8c2.2,3.8,0.3,7.9-4,8.5c-10.6,1.5-18.6-3-24-11.7c-3.5-5.7-8.7-8.9-14.5-10.1
		c-15.5-3.3-30.7-7.8-46.5-9.3c-10.1-1-20-3-30.1-4c-13.5-1.3-27.1-2.4-40.7-2c-12.3,0.3-24.7-0.8-36.9,1.1
		c-13.2,2.1-26.6,1.8-39.9,3.7c-33.1,4.8-66,11.2-98.4,19.2c-10.2,2.5-20.4,5.1-30.6,8c-5.6,1.6-11.1,3.9-16.7,5.6
		c-4.4,1.3-6.7,4.7-8.6,8.3c-5.1,9.7-11.9,18-21,24.2c-3.8,2.6-8.3,3.4-12.9,2.9c-5.7-0.6-8.3-10-6.9-15.1c2.7-9.9,9-17.1,17.5-22.6
		c3.3-2.2,6.7-4.2,9.9-6.4c9.5-6.5,14.6-16.4,19.9-26c10.5-19,18.9-39,26.5-59.3c6.7-18.1,13.3-36.2,18.9-54.6
		c3-9.8,6.7-19.5,9.7-29.3c4-13,7.3-26.2,11.5-39.1c3.1-9.5,5.4-19.1,8.6-28.6c4.3-12.9,7.5-26.1,11.3-39.2
		c3.3-11.6,7-23.1,9.8-34.8c4.1-16.5,9-32.7,13.4-49.1C1631.3,513.1,1634.2,501,1638.7,489.4z"/>
	<path class="st1" d="M1659.8,490.2c-0.5-2.9,0.6-5.4,1.9-7.8c2.7,0.6,3.4,2.3,3.1,4.9C1664.4,490.6,1661.6,489.5,1659.8,490.2z"/>
	<path class="st0" d="M2762.9,183.5c-0.5-1.4-0.4-2.7,0-4.1c2.5,0.5,1.8,2.4,1.9,3.8C2764.1,183.3,2763.5,183.4,2762.9,183.5z"/>
</g>
</svg>
