<?xml version="1.0" encoding="utf-8"?>
<!-- Generator: Adobe Illustrator 26.2.1, SVG Export Plug-In . SVG Version: 6.00 Build 0)  -->
<svg version="1.1" id="Layer_1" xmlns="http://www.w3.org/2000/svg" xmlns:xlink="http://www.w3.org/1999/xlink" x="0px" y="0px"
	 width="3525px" height="949.8px" viewBox="0 0 3525 949.8" style="enable-background:new 0 0 3525 949.8;" xml:space="preserve">
<style type="text/css">
	.st0{fill:#AF967F;}
	.st1{fill:#020202;}
	.st2{fill:#FEFEFE;}
</style>
<g>
	<path class="st0" d="M2053.9,364.3c12.3,9.7,10.6,23.3,9.6,36.4c-1,13.4-5,26.1-9.1,38.8c-2.2,6.6-6.1,12.7-9.2,19
		c-6.8,14.1-15.7,27-24.5,39.7c-7.1,10.3-15.6,19.5-23.4,29.3c-2.5,3.2-5.9,5.8-7.2,9.8c-0.3,0-0.6,0.1-0.9,0.1
		c0.1,0.1,0.1,0.3,0.2,0.4c0.2-0.2,0.4-0.4,0.6-0.6c11.2-4.6,22.5-8.7,34.6-10.5c18.8-2.8,37.1-2,55.4,3.9c24,7.7,41,23.4,53.2,44.7
		c5.1,8.9,8.4,18.7,10.7,28.7c0.6,2.9,1.7,3.2,4.4,2.9c10.2-1.1,20.5-1.9,30.7-2.7c12.4-1,24.8-1.8,37.2-2.7c0.5,0,1.1-0.2,1.5-0.1
		c9.4,4.5,14.3-2.9,20.2-7.6c10.4-8.3,21.4-15.7,34.7-18c10.3-1.8,20.9-2.2,29.2,6.6c1.8,1.9,3.1,4,3.8,6.4c1.1,3.7-0.2,7.3-3.7,8.1
		c-6.1,1.4-11.6,4.1-16.8,7.2c-23.6,13.9-44.8,30.6-61.7,52.4c-4.7,6.1-8.5,12.8-10,20.4c-0.4,1.9-1,4.2,0.8,5.6
		c1.9,1.5,3.8-0.1,5.5-1.1c5.6-3.4,10.3-7.9,15-12.4c18.2-17.4,35.2-35.9,54.9-51.7c5-4,9.9-8.3,15.7-11.2c16-7.9,23-0.5,24.8,14.7
		c0.8,6.7-1.3,13.1-2.4,19.7c-0.9,5.9-2.7,11.6-3.3,17.5c-1,10.2,3,21,17.8,15.8c1.4-0.5,2.8-1,4.2-1.6
		c13.9-5.4,25.8-14.1,37.8-22.7c11.2-8,21.7-16.9,32.1-25.9c5-4.3,9.9-8.7,15-13c2.9-2.5,4.4-5.8,5.9-9.1c7.7-16.4,21.3-25,38.2-29
		c7.3-1.8,14.9,2.2,18.3,8.9c3.9,7.4,4.1,15.4,3.3,23.3c-0.6,6.4-7,9.8-13.5,8.2c-3.9-1-5.7-6.8-3.7-12.9c1.4-4.2,2.7-8.5,5.2-12.3
		c0.7-1.1,1.2-2.3,1.3-3.7c0.3-4.1-0.8-4.8-4.5-3.5c-8.2,2.9-12.9,9.4-16.4,16.7c-9.6,19.7-6.9,39.9-1.1,60
		c1.2,4.3,2.6,8.6,4.1,12.8c2.1,5.9,3.9,5.9,8.2,1.6c8.2-8.1,16.6-16.1,25.4-23.6c13.2-11.3,27.5-21.2,42.3-30.4
		c8.8-5.5,18.1-10.1,27.6-14.1c3.5-1.4,5.3-3.4,6.7-6.5c2.3-5.5,4.7-11,9.4-15c4.9-4.2,10.5-6.2,16.9-3.7c6.4,2.6,8.1,9.9,3.1,14.5
		c-13.2,11.9-16.3,28.6-21.5,44.2c-2.6,7.9-4,16.1-2.2,24.6c2,8.9,7,12.4,15.8,10.4c10-2.2,18.5-7.8,27.3-12.7
		c22.4-12.5,43.1-27.6,63.8-42.7c6.5-4.7,12.2-10.5,18.7-15.3c3.8-2.8,5.2-9,7.9-13.4c7-11.5,15.2-21.8,26.6-29.5
		c12.1-8.1,25-4.4,33.1,6.4c3.9,5.1,6.8,10.8,8.5,17.2c1.9,7-3.8,12.2-8.9,13.8c-4,1.3-8.4-2.7-8.4-7.5c0-5.6-0.7-11.2,0.5-16.8
		c0.8-3.5-2-5.5-5.5-4.3c-2.1,0.8-3.8,2.3-5,4.1c-8.4,12.7-16.8,25.2-21.8,39.9c-2.6,7.7-6.3,15.1-8.7,23c-3.8,12-6.9,24.2-7.5,36.7
		c-0.4,8.7-0.2,17.8,8.7,23.5c4.5,2.9,9,2,13.3,0.4c12.4-4.6,23.1-12.2,33.6-20.2c20.4-15.5,39.3-32.8,57.4-50.8
		c8.8-8.8,17.6-17.6,23.9-29c7.2-13.2,20.4-19.7,34.9-22.5c7.3-1.4,14.6,2.5,17.6,9.4c3.8,8.5,5.2,17.5,1.7,26.5
		c-1.6,4.2-6.9,6.1-11.4,4.6c-4.6-1.5-5.2-5.3-4.8-9.3c0.6-5.6,3.6-10.3,5.8-15.3c1.1-2.4,3.8-5.5,1.1-7.6c-2.4-1.9-5.9-0.2-8.3,1.6
		c-9.1,6.5-14.1,15.8-16.7,26.4c-4.4,17.4-1.3,34.3,3.7,51.1c1.8,5.9,3.5,11.8,6.9,17.6c7.4-7.2,14.6-14.4,21.9-21.3
		c19.6-18.5,41.5-33.8,65.2-46.5c4.7-2.6,9.9-4.3,14.8-6.5c2-0.9,4.2-1.5,5.1,0.8c1,2.3-1.2,3.4-3,4.5c-9.7,5.6-20,10.1-29.1,16.6
		c-11.5,8.2-23.6,15.7-34.2,25c-8.8,7.8-18.4,15-25.7,24.6c-2.7,3.6-5.9,7.4-9.7,10.3c-2.6,2-3,4.4-2.2,7.9
		c3.7,17.4,2,34.6-6.5,50.2c-5,9.2-11.6,17.9-22.4,21.8c-9,3.3-17.2-2-18.8-11.7c-2.8-16.5,4.2-30,12.1-43.4
		c3.2-5.5,7.2-10.3,11.5-14.9c2.6-2.7,2.3-5.6,1.1-8.1c-5.9-12.5-10.3-25.5-14.8-38.4c-2.8-8.1-4-16.7-4-25.4c0-1.3-0.5-2.6-1.3-3
		c-0.9-0.4-2.2,0.4-2.9,1.3c-8.6,10.3-18.6,19.3-28,28.9c-13,13.4-26.8,26.2-41.9,37.2c-11.4,8.4-23.4,16.4-38.4,18.5
		c-16.1,2.2-23.9-4.1-31.2-16.4c-5.6-9.3-6.9-20.1-6.8-30.3c0.2-13.6,0.7-27.6,6.3-40.5c0.8-1.9,1.8-4,1.2-6.3
		c0.1-0.1,0.2-0.2,0.3-0.2c-0.1,0.1-0.2,0.2-0.2,0.3c-15.9,12.3-31.6,24.9-48.5,35.8c-16.6,10.7-33.3,21.3-52,28.1
		c-7.7,2.8-15.6,5.7-24,2.6c-9.2-3.4-17.1-13.8-17.3-24c-0.2-9.9-0.7-19.9,3.1-29.3c1.9-4.8,3.1-9.9,6.4-15.3
		c-6.4,1.7-10.9,4.7-15.5,7.4c-16,9.6-31.5,20-45.7,32.1c-8.9,7.6-18.3,15-25.6,24.5c-2.3,3.1-5.2,6.2-8.3,8.7
		c-4,3.3-4.4,6.8-3.5,11.8c3.2,17.6,1.2,34.7-8.1,50.2c-3.9,6.4-8.5,12.6-15,16.6c-4.5,2.8-9.2,6.1-15.1,3.8
		c-6.2-2.5-8.6-7.2-9.7-13.6c-2.8-16,4.4-29,11.9-42c3.2-5.7,7.4-10.6,11.8-15.3c2.5-2.8,2-5.6,0.9-8.1
		c-5.9-12.5-10.4-25.4-14.8-38.4c-3-8.8-4.5-18.1-3.4-28.7c-5.6,4.8-10.7,8.6-14.9,13.1c-5.3,5.7-11.8,9.7-17.7,14.5
		c-10.1,8.1-20.9,15.5-32.2,21.8c-15.7,8.7-31.4,18.2-50.7,16.5c-6.5-0.6-14.2-7.8-15.8-16.3c-1.7-8.8-1.2-17.6,0.3-26.5
		c1.1-6.6,1.9-13.2,2.7-19.8c0.1-1.1,0.8-2.9-1.1-3.4c-1.4-0.4-2.9-0.4-4.2,0.7c-7.2,6.1-14.2,12.4-20.2,19.8
		c-4.7,5.8-9.8,11.1-14.7,16.8c-6.7,7.8-13,16-20.7,23c-8.1,7.3-16.3,14.5-27,17.9c-5.2,1.6-10.1,0.3-14.3-1.7
		c-16.7-7.6-19.8-23.3-13.7-38.9c5.2-13.3,13.4-24.8,21.8-36.2c1.8-2.4,3.9-4.3-1.7-4.8c-12.5-1.1-24.9-2-37.4-1.8
		c-6.3,0.1-12.7,0.2-19,0.3c-4.3,0.1-6.6,0.6-6.1,6.5c1.5,16.8-1.2,33.3-5.4,49.7c-6.4,24.5-16.9,47.2-30.1,68.7
		c-11.7,19.1-25.2,36.7-40.1,53.5c-15.2,17.2-32.4,32.2-50.2,46.6c-9.3,7.6-19.9,13.7-30.3,19.9c-21.9,13-45.2,22.6-70.1,27.4
		c-26.5,5.1-52.6,3.3-77.5-8.6c-24.7-11.8-42-30.3-51.7-55.7c-3.9-10.1-4.7-20.8-4.4-31.7c0.3-14.3,3.9-27.6,9.7-40.3
		c5-11,12.1-20.7,19.8-30.1c17.3-21.1,39.4-36.3,62.7-49.8c2.4-1.4,4.8-2.8,7.3-4.1c4.4-2.4,2.9-7,3.6-10.5
		c1.6-7.5,1.9-15.2,3.1-22.7c1.4-8.7,3.2-17.2,4.9-25.9c2-10.2,4.1-20.5,6.2-30.7c2.2-10.7,4.1-21.5,7-32
		c3.1-11.2,5.7-22.5,8.4-33.7c5.6-23.3,11.6-46.4,18.3-69.4c2.3-8,4.2-16.1,6.6-24c0.5-1.7,0.3-3.2,0.4-4.8c2.7-1.4,2.2-4.2,3-6.5
		c6.9-22,13.5-44.2,21.1-65.9c6.4-18.2,12.8-36.4,21.7-53.6c3.4-6.5,6.8-13,13.3-17.2c3.8-2.4,6.6-1.6,7.7,2.5
		c0.9,3.4,1.3,6.8,1,10.4c-1.6,18.2-6.7,35.6-12.9,52.6c-4.1,11.2-5.3,11.4-13.2,2.1c-6.3,22.9-12.4,45.4-18.6,67.9
		c-0.7,2.5-1.3,4.9-2,7.4c-0.3,0.9-0.7,1.8-1,2.8c-13.3,48.2-26.7,96.4-39,144.9c-3.1,12.4-6.2,24.8-9.3,37.1
		c2.8-3.7,4.5-7.7,6.2-11.8c18.2-43.3,36.9-86.3,57.2-128.6c9-18.9,19.1-37.3,28.8-55.9c0,0-0.1,0.2-0.1,0.2
		c0.4-0.4,0.8-0.8,1.1-1.2c4.9-8.5,10.5-16.4,17.5-23.4C2034.7,369.4,2042.7,363.4,2053.9,364.3z M2033.1,384.4
		c-1.8-0.5-1.6,1.1-2.1,1.9c-6.6,6.5-10.8,14.6-15.2,22.6c-22.4,41.1-42,83.5-61,126.2c-2.5,5.5-5.3,10.9-6.6,17.2
		c2.5-0.8,3.6-2.5,5-3.9c23.5-23.9,44.2-50.2,62.1-78.5c14.4-22.9,27.1-46.6,34.8-72.7c1.9-6.5,3.9-13.1,2.2-20.1
		c-0.9-3.8-3-5.3-6.9-3.8C2039.8,375.4,2035.3,378.6,2033.1,384.4L2033.1,384.4z M1885.7,871.6c22.9,0.1,47.4-7.1,70.6-18.5
		c63.2-31.1,111.4-78.1,145.2-139.7c15.2-27.7,25-57.3,24.6-89.5c-0.1-7.4,0-7.4-7.6-6.5c-25.8,3-51.4,6.7-76.9,11.9
		c-44.8,9.1-88.6,21.3-130.4,40c-3.4,1.5-5.2,3.5-6.2,7c-1.8,6.6-4,13.1-7,19.2c-3,6-7.9,6.4-12.1,1.2c-1.6-2-2.7-4.4-2.9-6.8
		c-0.5-5.3-2.8-4.5-6.3-2.5c-13.5,7.6-26.5,16-38.1,26.4c-20.2,18-36,39-41,66.3c-5.2,28.4,2.3,52.8,24.5,71.9
		C1839.3,866.7,1860.1,871.6,1885.7,871.6z M1911,655.9c6.2-2.3,11.8-4.5,17.4-6.5c60.8-21,123.7-31.9,187.4-39.3
		c11.7-1.4,9.6,0.3,8.1-10.2c-0.2-1.6-0.7-3.3-1-4.9c-9.2-39.1-36.9-60.9-77.1-61c-19.8-0.1-38.5,4.4-56.8,11.5
		c-6.1,2.3-10.9,5.9-15.1,10.8c-7.9,9.2-16.9,17.5-27.7,23.4c-2.3,1.3-5,3-7.5,2c-2.7-1.1-2.9,0.1-3.6,1.9
		c-3.1,7.9-6.4,15.7-9.5,23.6C1919.3,622.8,1915.3,639.1,1911,655.9z M2455.9,700.1c-2.9,1.4-4.4,3.1-5.7,4.7
		c-8.2,9.8-12.9,21.1-15.3,33.6c-0.7,3.7-0.6,7.3,0.3,10.8c1.9,7.1,8.3,9,13.7,4.1c2.4-2.1,4-4.9,5.2-7.8
		C2459.8,730.7,2458.5,715.7,2455.9,700.1z M2871.9,700.3c-2.9,1-4.2,2.7-5.6,4.3c-8.4,9.8-13.2,21.4-15.5,34
		c-0.6,3.3-0.6,6.6,0.2,9.9c0.7,3.5,2.5,6.4,5.9,7.4c3.6,1.1,6.5-0.9,8.8-3.4c2.6-2.8,4.3-6.3,5.4-10
		C2875.4,728.6,2874.4,714.7,2871.9,700.3z"/>
	<path class="st0" d="M1736,413.2c-5,5.2-7.6,11.9-11.8,17.7c-2.8,3.9-5.1,8.1-8.1,11.9c-6.2,7.9-7.6,17.8-10.9,27
		c-3.9,11.2-7.1,22.6-10.7,34c-11.1,35.5-22.3,71.1-32.1,107c-5.6,20.4-10.9,41-15.8,61.5c-5.9,24.5-10.8,49.3-14.5,74.2
		c-2.9,18.9-4,38.1-3.2,57.2c0.1,1.7,0.5,3.2,0.9,4.8c0.9,3.6,1.5,7.8,5.6,8.6c4.4,0.8,7.7-2.4,10.5-5.4
		c12.1-13.3,20.5-29.1,29.4-44.5c8-14,14.5-28.8,21.7-43.2c4.8-9.7,10.3-19.1,14.5-29c4.5-10.7,9.9-21.1,14.8-31.7
		c4.4-9.5,8.4-19.3,13.4-28.5c5.1-9.3,8.8-19.3,14.4-28.4c1-1.6,1.8-3.8,4-2.8c1.9,0.9,1.1,3.4,0.7,5c-1.8,7.1-4.5,13.8-7.4,20.5
		c-13.1,30.8-26.6,61.3-41.4,91.3c-7,14.1-13.7,28.4-21.4,42.2c-11.4,20.7-23.8,40.9-39.5,58.7c-3.3,3.7-7.8,6.6-12.3,8.8
		c-6.1,2.9-12.5-0.6-15.6-7.8c-3.4-7.7-4.2-16-5.3-24.3c-0.8-6-1.2-12.1-1.5-18.2c-0.6-9.2-0.3-18.6,0.9-27.8
		c0.9-7.1,0.6-14.1,1.6-21.2c1-7.2,2-14.6,2.6-21.9c0.8-10.5,3.5-20.7,4.7-31.1c1-8.8,3.3-17.5,5.2-26.3c3.9-17.9,10.3-35.1,14.3-53
		c1.3-5.8,4-11.4,4.6-17.7c-3.4,6.8-7,13.4-10.2,20.3c-6.3,13.6-13.7,26.5-21.7,39.1c-4.2,6.6-8.9,12.6-14.2,18.4
		c-9.2,10.1-26.5,12.4-38.4,6.1c-7-3.7-11.3-9.8-11.6-18.2c-0.3-8.4-0.5-16.8,2.7-24.9c0.3-0.8,0.3-1.6-0.6-2.7
		c-4.6,3.6-9.2,7.3-13.9,10.9c-11.2,8.7-22.8,16.9-35.1,24c-14.9,8.7-30.5,16.2-47,21.6c-11.8,3.8-23.8,6.8-36.2,6.5
		c-16.9-0.5-31.8-6.4-43.2-19.6c-3.4-3.9-5.1-8.5-5.7-13.4c-1.5-12.3,1.6-23.9,6.5-35.1c0.5-1.1,2-2,1.1-3.5
		c-1.1-1.9-2.6-0.4-3.9-0.3c-9.2,0.4-17.2,4.5-25.7,7.6c-18.4,6.7-33.8,17.8-48.4,30.5c-1.3,1.2-3,2-4.4,3
		c-10,6.8-11.1,17.7-13.2,28.1c-5.1,25.1-12.1,49.7-19.3,74.2c-8.2,27.7-18.9,54.4-31,80.6c-3.3,7.1-7.3,13.9-11.4,20.6
		c-4.9,8.1-10.2,15.8-17,22.2c-6.4,6.1-13.6,11.5-23.5,11.3c-3.7-0.1-7.1,1.3-11.1-0.5c-8.8-4.1-12.8-13.3-11.3-23.1
		c1.7-11.7,5.4-22.9,8.8-34c2-6.4,5.2-12.6,8.1-18.8c4-8.6,8.7-17,13-25.4c8-15.6,16.9-30.6,26.4-45.3
		c12.7-19.8,25.8-39.4,40.7-57.7c1.9-2.3,2.1-5,2.8-7.7c3.4-12.9,7.1-25.8,10.3-38.7c2.3-9.6,4-19.3,4.5-29.2
		c0.1-1.9-0.3-4.1-1.2-5.7c-1.6-3-3.9-2.2-6.1-0.2c-5.9,5.5-10.4,12.1-14.9,18.6c-9.8,14.1-20.3,27.6-31.3,40.7
		c-5.7,6.8-12.6,12.1-20.3,16.6c-11.4,6.7-18.9,2-25.2-6.8c-2.8-3.9-2.9-8.6-3.2-13.2c-1.1-15.5,4.3-29.1,12.3-41.9
		c1.1-1.8,2.1-3.7,3-6.1c-15.3,0.1-28.8,5.4-41.8,11.9c-7.9,3.9-15.6,8.4-22.6,13.8c-9.3,7.2-19.4,13.6-26.7,23.1
		c-4.6,6-5.3,13.4-6.7,20.4c-3.4,17.3-7.9,34.3-12.6,51.3c-6.1,22.4-13.4,44.4-21.7,66.1c-7.5,19.8-16.2,39.1-26.9,57.3
		c-5.8,9.8-12.8,18.6-20.9,26.7c-7.6,7.6-24,10.8-33.7,6.5c-5.1-2.3-7.3-7-8.3-12.1c-2.5-12.1,1.9-23.3,5.4-34.3
		c5.1-15.9,12.2-30.9,19.6-45.9c7.8-15.8,16.6-31.1,25.9-46c11.5-18.4,22.7-37.2,37-53.7c9.9-11.3,13.4-25.2,16.9-39.2
		c2.3-9.3,5.2-18.6,6.5-28c1-7.5,3.4-14.8,2.6-22.6c-0.5-4.6-2.1-5.4-6.1-3.4c-4.9,2.4-7.8,6.9-10.5,11c-8.7,13.1-18.4,25.5-27.9,38
		c-8.4,11.2-18.1,21.3-30.7,28.2c-6.1,3.3-16.3,1.4-20.7-3.7c-7.2-8.4-7-18.2-6-28.2c0-0.5,0.1-1,0.2-1.5c0-0.1-0.2-0.2-0.5-0.6
		c-5.1,6.7-10,13.4-15.2,19.9c-10.3,13.1-21.4,25.3-34.9,35.2c-11.4,8.3-21.9,3.9-25.9-9.7c-3.9-13.6-1.2-27.2-2-40.8
		c-0.4-7.6,3-14.6,3-22c0,0,0.2-0.1,0.2-0.1l-0.1,0.1c-7.8,9.8-13.5,20.9-19.3,31.8c-6.3,11.9-14.3,22.6-23,32.7
		c-3.5,4.1-8.9,3-13.2,1.9c-15.3-3.6-24-15-24.7-30.9c-0.9-22.3,5.9-42.4,16.4-61.6c4.3-7.8,9-15.4,15-22.1
		c4.1-4.6,8.2-5.2,15.6-1.8c4.9,2.2,7.2,6.7,6.2,12.1c-1.2,7.1-5.3,13-8.5,19.3c-5.8,11.3-11,23-15.1,35
		c-3.4,10.2-7.6,20.4-6.6,31.6c0.1,1.2-0.1,2.4,0.2,3.5c0.7,2.3,1.2,5.5,3.8,6c2.3,0.5,4.3-1.4,6-3.5c13.1-15.8,23.3-33.6,34.2-50.9
		c11.3-18,21.5-36.6,30.9-55.7c0.6-1.2,0.8-2.5,1.2-3.7c1.9-5.8,7.8-9.2,13.6-7.8c4.7,1.1,7.2,6.3,5.6,12.6c-2.9,11.7-6,23.3-8.9,35
		c-5.5,21.6-11.2,43.1-15.2,65c-0.6,3.4-0.4,7-0.2,10.5c0.4,4.8,3.9,6.4,8.1,4.1c6.5-3.5,11.6-8.9,16.3-14.4
		c18.3-21.3,34.9-44,49.4-68.2c2.3-3.8,4.1-7.4,9.3-7.8c1.3-0.1,2.7-1.9,3.7-3.2c7.9-10.1,17.7-18.3,28.4-25.2
		c11.5-7.4,23.8-12.8,37.9-12.3c6.2,0.2,12.1,1.6,17.5,4.9c5.9,3.7,6.1,10.6-0.1,14c-9.4,5.2-19.7,8.3-28.7,14.4
		c-22.9,15.6-43.8,33.1-58.8,56.9c-2.3,3.7-3.9,7.7-4.7,12c-0.6,3.3-0.3,6.7,2.7,8.5c2.8,1.7,5.5-0.3,7.6-2.2
		c10.1-8.6,17.8-19.3,26.1-29.5c10.5-13.1,20.3-26.8,32.6-38.4c6.6-6.3,13.4-8.5,22.1-4.4c8.4,4,11.7,11,12.5,19.5
		c0.7,8.6-0.2,17.2-1.8,25.8c-0.3,1.7-0.7,3.5,0.5,5.7c2.8-2.2,5.5-4.3,8.1-6.5c19.1-16.2,40.2-28.7,64.5-35.2
		c6.9-1.8,13.9-3.2,21-3.4c4.8-0.1,7.1-3.6,9.5-6.5c15.4-17.7,33.4-31.1,57.1-35.2c8.4-1.5,16.8-0.2,24.4,3.9c2.9,1.6,5,4.4,4.6,8.2
		c-0.4,3.8-2.6,6.6-6.1,7.8c-28.7,10.2-51,29.4-71.6,51c-5.6,5.9-10.5,12.4-14.6,19.6c-2,3.5-3.5,7.2-4.3,11.1
		c-0.7,3.5-0.3,6.9,2.8,8.9c2.9,1.8,5.4-0.6,7.5-2.4c8.5-7.3,15.4-16.1,22.3-24.9c9.9-12.6,19.4-25.4,30.4-37.1
		c2.8-3,5.8-6.1,9.1-8.5c11.3-8.2,17.1-5.5,26,3.8c7.8,8.2,5.5,19.3,4.8,29.5c-0.3,5.1-1,10.2-1.7,16.4c7-5.6,12.8-10.5,19-15.1
		c18.6-13.9,38.7-24.6,61.9-28.8c4.7-0.9,9.1-2.7,13.9-3.2c2.7-0.3,4.1-4.3,6-6.7c6.8-8.6,14.2-16.6,24-21.9
		c6-3.3,12.5-4.4,19.1-3.3c3.6,0.6,7.3-0.5,10.9,2c7.9,5.4,10.8,12.5,6.7,21.2c-4.1,8.6-10.8,14.8-18.7,20.4
		c-8.6,6.1-17.9,10.6-27.2,15.3c-2.6,1.3-3.9,3.7-4.8,6.1c-3.8,9.6-4.9,19.4-2.2,29.6c3,11.6,16.2,16,27.3,14.4
		c23.8-3.5,45.1-13.5,66-24.8c15.3-8.3,30.2-17.3,44-27.9c9.5-7.3,19.6-14.3,26.2-24.5c4.9-7.5,9.8-14.8,16.1-21.3
		c9.8-10.3,21.1-17.6,35.6-19c9.5-0.9,14.3,2.3,16.1,10.6c0.9,4,0.1,8.2-3.7,10c-16,7.6-25.5,21.5-34.9,35.5
		c-5,7.5-9.4,15.3-12.7,23.8c-1.9,4.7-2.8,9.6-2.4,14.7c0.2,2.2,0.4,4.5,2.7,5.6c2.1,1,3.8-0.5,5.4-1.6c7.1-5.2,12.1-12.4,17.1-19.5
		c15.6-22,29.7-45,40.8-69.6c10.2-22.6,19.5-45.4,27.7-68.8c4.8-13.6,10-27,13.8-40.9c3.3-11.8,8.5-23.1,10.9-35.1
		c0.7-3.6,3.8-6.6,3.5-10.6c2.1-2.1,2.7-4.9,3-7.7c6.6-18,13.9-35.8,23.8-52.3c4.1-6.9,9.1-13.6,18.3-14.1
		c7.3-0.4,12.3,4.2,12.9,11.4c0.7,8.7-1.6,17-4.5,25.1c-3.7,10.3-9.2,19.8-13.5,29.8C1738.4,408.1,1736.4,410.2,1736,413.2z
		 M1253.5,702.3c-2.5,1-3,2.3-3.8,3.4c-17.1,23.9-32.6,48.7-46.9,74.3c-11.9,21.4-23.1,43.2-30,66.8c-2.4,8.3-4.4,16.7-2.9,25.5
		c0.7,3.8,1.3,8.1,5.5,9.3c4,1.2,6.3-2.4,8.5-5c6.9-8.1,11.5-17.5,16-27c15.5-33,27.6-67.4,39-102
		C1243.9,732.8,1248.5,717.9,1253.5,702.3z M1058.6,702.3c-2.6,1-3.2,2.5-4,3.7c-17.9,25.3-34.4,51.5-49.2,78.7
		c-10.8,19.9-21,40.1-27.4,62c-2.5,8.5-4.3,17.1-2.9,26c0.6,3.7,1.5,7.7,5.4,8.9c3.7,1.1,6.1-2,8.3-4.5c7.1-8.1,11.8-17.7,16.3-27.3
		c14.7-31.2,26.2-63.6,37.1-96.3C1047.7,736.7,1052.9,719.9,1058.6,702.3z M1411.1,619.3c0.8-0.4,1.9-0.8,2.9-1.4
		c8.7-5,16.4-11.3,23.6-18.1c2.9-2.7,5.6-5.6,7.5-9.2c0.8-1.5,1.5-3.1,0-4.6c-1.3-1.4-3.1-1.2-4.6-0.5c-1.8,0.8-3.5,1.9-5.1,3.1
		c-7.1,5.3-13.3,11.5-18.9,18.3c-2.4,2.9-4.9,5.9-6.5,9.4C1409.6,617.4,1408.3,618.9,1411.1,619.3z M1751.1,357.8
		c-0.2-1.2,0.7-3.3-0.9-3.8c-1.7-0.5-2.2,1.6-3,2.8c-1.2,1.8-2.2,3.7-3.1,5.7c-5.9,12.6-10.8,25.7-15.5,38.8
		c-0.4,1.1-2.4,2.7-0.2,3.7c1.9,0.8,2.4-1.3,3.1-2.5c6-11.1,12-22.2,16.6-34C1749.4,365.1,1751,361.7,1751.1,357.8z"/>
	<path class="st1" d="M2374.8,369.6c-4.8,18.6-13.6,34.1-32.5,41.2c-14.2,5.3-27.5,2.7-39.7-6.3c-11-8.2-17.9-19.6-24.9-31
		c-8.4-13.7-14.3-28.6-21.1-43.1c-5.9-12.7-11.2-25.7-17.2-38.4c-5.2-10.8-11.2-21.2-18.9-30.5c-2.7-3.2-5.4-1.8-8-1.7
		c-2.6,0.1-1.4,2.9-1.4,4.5c-0.1,39.8-0.1,79.6,0,119.5c0,10,8.1,20.4,17.9,22.7c2.9,0.7,3,2.4,3,4.7c0.1,3.3-2.3,2.2-3.8,2.2
		c-28.2,0.1-56.3,0.1-84.5,0c-1.5,0-3.9,1.2-3.8-2.1c0.1-2.4-0.1-4.1,3.2-4.9c7-1.8,11.1-7.3,14.8-13.1c3.3-5.2,3.1-10.8,3.1-16.5
		c0-94.1,0-188.3-0.1-282.4c0-10-5.5-17.4-13.1-23.4c-1.3-1-2.9-1.1-4-1.1c-3.8,0-4-2-3.9-5c0.1-4,3-2.4,4.6-2.4
		c36.5-0.1,73-0.3,109.5,0c20.2,0.2,39.2,5.3,55.7,17.8c8.7,6.6,15.7,14.5,21.5,23.7c12.9,20.8,17.1,43.6,14.7,67.6
		c-2.5,24.7-11.8,46.7-30,64.1c-9.8,9.3-21,16.6-34.4,19.8c-6.2,1.5-6.6,3.3-2.4,8.4c9.5,11.5,15.9,24.8,22,38.3
		c10.4,23,19,47,33.8,67.9c3.9,5.5,7.9,10.9,13.3,15.1c2.7,2.1,5.6,3,8.7,1.7c3.6-1.6,5.9-4.5,6.2-8.5c0.8-9.3,0.7-9.3,10.2-9
		C2373.7,369.3,2374.2,369.5,2374.8,369.6z M2211.1,160.8c0,29,0.1,58-0.1,86.9c0,3.4,0.7,4.7,4.3,4.5c6.5-0.3,13-0.2,19.5-0.1
		c15.5,0.3,28.1-5.9,38.1-17.5c5.6-6.5,9.8-13.8,13-21.7c9.8-24,11.9-49,8.5-74.5c-2.4-17.6-7.5-34.4-18.5-48.8
		c-8.5-11.2-19.6-18.7-33.8-20c-8.6-0.8-17.3,0-26-0.4c-4.1-0.2-5.3,0.8-5.2,5.1C2211.2,103.2,2211.1,132,2211.1,160.8z"/>
	<path class="st0" d="M633.1,698.2c7.7,1.6,15.4,3.8,23.3,4.6c8,0.8,15.3,3.9,22.8,5.9c24.9,6.6,48.9,16.1,72.3,26.9
		c8.9,4.1,18,8.4,26.3,13.5c17.2,10.6,34.7,21.2,50,34.6c3.4,2.9,6.8,5.8,8.5,10.2c2.6,6.8-0.2,11.3-7.4,11.2
		c-7.9-0.1-13.2-4.8-15.6-11.7c-3.9-11.2-12.6-16.8-22.1-22.3c-13.7-7.8-27.5-15.4-41.7-22.3c-17.3-8.4-35-15.7-53.2-21.9
		c-11.7-4-23.7-7.5-35.7-10.5c-13.7-3.5-27.6-6.5-41.6-9.1c-8.7-1.6-17.5-2.8-26.3-3.1c-6.3-0.2-12.7,1.3-19.1,2
		c-1.8,0.2-2.4,1.6-3.1,2.9c-7.1,15.3-14.1,30.5-20.5,46.1c-9.4,23.1-18.3,46.4-24.3,70.6c-2.1,8.3-3.5,16.7-4.2,25.2
		c-0.4,4.7-2.7,9.3-7,12c-4,2.5-8.1,1.7-11.1-1.6c-4-4.2-6.6-9.2-7-15.3c-1.4-19.8,3-39,5.7-58.3c2.7-18.9,7.2-37.5,10.4-56.3
		c1.2-7.2,3.2-14.4,5-21.5c0.9-3.6-0.3-3.6-2.8-3.6c-6.7-0.1-13.3-0.3-20-0.5c-8.9-0.2-17.7-0.9-26.5-2.4c-4.7-0.8-9.6,0.3-14.2-1.4
		c-2.6-0.9-5.3-1.7-7.7-3c-2.5-1.4-4.2-3.6-3.9-6.4c0.3-2.9,1.4-5.7,4.7-7c3.3-1.3,6.7-2.1,10.1-2.3c13.3-1,26.6-0.3,39.8,1.3
		c7.2,0.9,14.5,1.6,21.7,2.6c3.2,0.4,5.3-0.8,5.5-3.9c0.6-9.4,4.6-18,6.4-27.1c2.6-12.5,6.3-24.7,9.7-36.9
		c4.6-16.4,9.3-32.7,14.2-49c5.2-17.4,10.1-34.9,16.3-52c4-11.1,6.7-22.6,10.7-33.6c7.2-20.2,14.5-40.3,22.1-60.3
		c6.9-18.1,14.1-36.1,22.3-53.5c7.9-16.8,16-33.5,27.5-48.4c4.3-5.5,9.1-9.7,15.4-12.3c6.1-2.5,8.3-0.9,8.4,5.4
		c0.2,9.3-3.8,17.6-7.7,25.5c-5.2,10.4-10.8,20.7-18.1,30c-2.1,2.6-4.9,4-7.1,3c-5.5-2.3-6.7,1.1-8.2,4.9
		c-7.4,18.9-14.2,37.9-20.5,57.2c-7,21.5-14.1,43.1-20.7,64.7c-5,16.2-9.3,32.6-14.3,48.7c-6.1,19.5-11.7,39.2-17.3,58.8
		c-5.5,19.5-11.1,39-15.3,58.8c-1.2,5.6-3.1,11.1-4.6,16.7c-0.9,3.3-0.8,5.7,4,5.5c4.9-0.2,10,0.2,14.9,1c4.8,0.7,7.2-1.3,9.2-5.4
		c6.2-12.9,12.6-25.8,19-38.6c7.9-15.9,16.3-31.4,24.7-47c10.8-20,21.6-40,33.4-59.3c9.8-16.2,20-32.2,31.2-47.6
		c7.8-10.7,15.7-21.2,24.1-31.3c15-17.9,31.3-34.6,51-47.6c9.2-6.1,19.4-9.6,30.2-10.9c17.3-2.1,32.6,8.6,39.1,26.7
		c5.7,15.8,7.3,32,6.2,48.8c-1.2,17.8-4.8,35-10,51.9c-8.2,26.7-21.7,50.5-37.5,73.3c-8,11.5-17.3,21.7-27.2,31.2
		c-12.5,12-26.1,22.7-41,31.7c-14.1,8.5-28.8,15.4-44.2,21.2C658.1,691.9,645.7,694.7,633.1,698.2z M815.4,461.9
		c0.1-13.3-1.3-21.7-5.3-31.3c-6.2-14.8-18.9-21.2-34.4-17.1c-10.8,2.8-20.1,8.6-28.8,15.5c-21.3,16.8-38.1,37.6-53.9,59.3
		c-26.1,35.9-47.9,74.4-68.7,113.5c-14.5,27.3-28.7,54.8-42.2,82.7c-0.8,1.6-2.7,3.4-1.7,5c1.1,1.7,3.3,0.2,5.1,0
		c14.2-2,28.2-4.9,41.9-9c73-21.7,128.3-65.4,164.2-132.8C805.7,520.9,814.8,492.5,815.4,461.9z M529.9,778.2
		c3.3-7.6,6.5-15.2,9.8-22.8c6.6-14.9,13.2-29.8,20-44.6c1.5-3.2,1.5-4.8-2.8-4.4c-5,0.5-10,0.7-14.9,0.7c-2.7,0-3.7,0.9-4.2,3.6
		c-1.6,9-3.7,17.9-5.2,26.9C530.2,751,528.1,764.4,529.9,778.2z"/>
	<path class="st1" d="M2053.9,364.3c-11.2-0.9-19.2,5.2-26.5,12.5c-6.9,6.9-12.6,14.9-17.5,23.4c-0.5,0.3-1.6,0-1.1,1.2
		c0,0,0.1-0.2,0.1-0.2c-2-0.6-3.4,0.8-4.9,1.5c-12.1,5.3-24.7,9-38,9.9c0.7-2.5,1.3-4.9,2-7.4c8.5-2.1,16.1-6.2,23-11.5
		c15.1-11.7,25.5-27.1,33.7-44c13.7-28.5,20.4-58.9,22.5-90.4c2.8-41-1.5-81.1-16.5-119.6c-8.2-21.1-19.2-40.6-36.9-55.5
		c-24.8-21-53.8-20.8-78.4,0.4c-16.7,14.4-27.6,32.8-35.4,53c-21.5,56-23.3,113.2-9.5,171.1c6.1,25.6,16.1,49.6,33,70.2
		c11.6,14.1,25.5,24.8,44.2,27.6c-0.8,2.2-0.4,5.1-3,6.5c-11.8-0.2-22.9-3.4-33.9-7.5c-9.3-3.5-18.1-7.7-26.2-13.6
		c-16.3-11.8-30.1-25.9-41.3-42.6c-3.5-5.2-5.8-11.2-10.6-15.7c-2.1-2-2.5-5.8-3.4-8.7c-3.5-10.4-7.9-20.4-11-31
		c-2.8-9.7-3.9-19.5-5.3-29.3c-2.3-16.2-1.5-32.4-1-48.6c0.3-8.6,2.4-17.2,4.3-25.7c2.6-11.8,6-23.4,11-34.2
		c8.5-18.3,18.4-35.7,32.9-50.4c11-11.1,22.5-21.3,36.5-28.4c7.7-3.9,15.6-7.3,24-9.9c11.8-3.7,23.8-4.7,35.7-4.5
		c28.7,0.6,54.3,10.4,76.5,28.6c32.3,26.4,50.7,61.1,59.7,101.2c3.8,17,5.5,34.3,4.8,51.7c-1.6,38.6-11.5,74.7-33.8,106.9
		C2060.8,355.4,2057.3,359.8,2053.9,364.3z"/>
	<path class="st1" d="M1426.1,323.9c0,19.7,0,39.3,0,59c0,10.5,8,20.9,18.1,23.5c3,0.8,2.7,2.6,2.8,4.8c0.1,3-2,2.1-3.4,2.1
		c-28.3,0-56.7,0-85,0c-1.3,0-3.7,1.2-3.6-1.8c0.1-2-0.7-4,2.5-5c11.1-3.5,18.5-14.2,18.5-25.8c0-95.3,0-190.6-0.1-285.9
		c0-11.6-5.9-19.8-16.1-25.3c-1.7-0.9-4.1,1.8-4.9-1.5c-0.9-4.2,0.1-5.5,4.5-5.5c36.5,0,73-0.3,109.5,0.1
		c24.7,0.2,46.9,7.6,64.8,25.4c9.8,9.7,16.5,21.5,21.3,34.4c7,18.8,8,38,4.7,57.4c-4.2,24.8-15.5,45.8-35.4,61.7
		c-12.4,9.9-26.5,15.1-42.1,17c-16.9,2.1-33.9,0.8-50.8,0.9c-4.6,0-5.4,1.4-5.3,5.6C1426.2,284.6,1426.1,304.3,1426.1,323.9z
		 M1426.1,161c0,15.2,0,30.3,0,45.5c0,14,0,28,0,42c0,1.4-0.9,3.8,1.9,3.7c11.8-0.4,23.7,1.5,35.3-1.6c16.8-4.4,27.2-16.2,34.5-31
		c11.5-22.9,14.5-47.5,12.5-72.8c-1.5-18.8-5.9-36.7-16.3-52.8c-10.7-16.4-25.4-25.5-45.5-24.7c-6,0.2-12,0.3-18-0.1
		c-3.9-0.2-4.6,1.1-4.6,4.7C1426.2,103,1426.1,132,1426.1,161z"/>
	<path class="st1" d="M1170.8,62.6c2.1,3.6,0.8,5.7-3.1,6.6c-10.3,2.3-14.7,10.4-18.6,18.9c-0.6,1.4,0.2,2.8,0.8,4.2
		c11.2,24.7,22.3,49.4,33.5,74.1c5.7,12.6,11.6,25.2,17.4,37.8c0.3,0.7,0.8,1.4,1.6,2.9c4.6-7.6,8.9-14.7,13.2-21.7
		c6.6-10.9,13.5-21.7,19.6-32.9c3.5-6.4,7.6-12.4,10.5-19.3c1.6-3.9,5.5-8.1,8.4-12.2c0.3-0.4,0.7-0.8,0.9-1.2
		c3.2-8.7,10.1-15.2,14.3-23.3c4-7.7,3.8-12.5-1.8-19.1c-3.3-3.8-7.3-6.9-12.1-8.1c-5.2-1.3-3.9-4-2.6-7.1c0.3,0,0.7,0,1,0
		c15.5,0,31,0,46.5,0.1c1.5,0,3.9-1.3,4.2,1.9c0.2,2.3,0.1,4.3-2.7,5c-10.1,2.3-14,10.8-18.8,18.5c-3,4.9-5.8,9.8-8.8,14.8
		c-6.2,10.5-12.5,20.9-18.8,31.4c-5.8,9.7-11.9,19.3-17.6,29c-10.3,17.4-21.4,34.4-31.1,52.2c-0.9,1.7-0.3,2.2,0.1,3.2
		c11,24.4,21.7,48.9,33.1,73.1c3.8,8.1,7.5,16.4,11.6,24.5c3.1,5.9,5.6,12.6,8.1,19c1.4,3.7,4.7,6.9,5.4,10.2
		c1.2,5.4,3.7,10.1,5.8,14.9c4.8,11.1,9.8,22.1,15.1,32.9c3.3,6.6,7.6,12.5,15.8,13.8c2.8,0.4,2.9,2.6,2.7,4.9
		c-0.2,2.9-2.4,1.8-3.8,1.8c-30.2,0.1-60.3,0.1-90.5,0c-1.4,0-3.6,1-3.5-2c0.1-2.1-0.5-4,2.8-4.7c9.2-2,13.9-8.9,17.7-16.7
		c1.1-2.2,1.2-4.6,0.1-6.6c-4.7-8.6-7.7-17.9-12.3-26.5c-3.4-6.4-5.7-13.5-9.8-19.7c-1-1.6-1.2-3.8-3.1-4.6c-1-0.4-1.4-1-1.1-1.8
		c1.9-6.4-2.8-10.6-5-15.6c-4.3-10-8.5-19.9-13.1-29.8c-2-4.4-4.3-8.6-6-13.1c-0.9-2.5-2.4-4.1-4.5-0.3c-4.5,8-9.5,15.7-14.3,23.6
		c-9.9,16.3-19.7,32.5-29.6,48.8c-7.9,13-15.8,26-23.7,39c-0.8,1.4-1.7,2.9-0.9,4.6c3.8,8.1,7.6,16.2,17.5,18.6
		c2.9,0.7,3.9,2.4,3.5,5.2c-0.5,3.1-2.8,1.6-4.3,1.7c-13.7,0.1-27.3,0.1-41,0.1c-1.3,0-2.9-0.4-3.9,0.2c-2.2,1.1-3.5,0.9-3.8-1.6
		c-0.2-1.8-1.7-4.3,1.6-5c8.7-2,13.4-8.6,17.8-15.5c4.7-7.3,9-14.9,13.4-22.3c6.7-11,13.4-22,20-33.1c5.8-9.7,11.2-19.6,17.1-29.2
		c5.5-8.9,11-17.9,16.8-26.7c4.3-6.4,8.1-13.2,12-19.9c0.5-0.8,0.6-1.6,0.1-2.7c-4.6-10.2-8.2-21-13.9-30.5c-5-8.2-7.7-17.4-12-25.8
		c-3.8-7.5-7-15.7-10.4-23.6c-2.9-6.7-5.9-13.5-9.5-20c-4.3-7.9-7.1-16.6-11-24.8c-4.3-9.3-7.9-18.9-13-27.8
		c-2.1-3.6-2.3-8.1-5.1-11.3c-4.3-5-3.9-12.2-8.8-17c-2.9-2.8-5.5-5-9.7-5.3c-4.7-0.3-6.5-3.8-4.5-8c1-2.1,3-1,4.4-1
		c30.5-0.1,61-0.1,91.5-0.1C1169.6,62.3,1170.2,62.5,1170.8,62.6z"/>
	<path class="st1" d="M1036.4,104.4c-6.4,0-12.1-0.1-17.7,0.1c-1.9,0.1-2.5-0.9-3.1-2.3c-4.5-10.3-9.1-20.6-13.3-31.1
		c-0.8-1.9-1.7-1.6-2.9-1.6c-33.3,0-66.7,0-100-0.1c-4,0-3.2,2.3-3.2,4.5c0,48.3,0,96.6,0,145c0,18.2,0.2,36.3-0.1,54.5
		c-0.1,4.7,1.4,5.3,5.6,5.3c25.8-0.2,51.7-0.1,77.5-0.1c8.4,0,14.6-4.7,17.1-12.9c0.6-1.9,0.4-4.4,3.9-4.3c3.1,0.1,3.9,0.9,3.9,4
		c-0.2,11.8-0.1,23.7-0.1,35.5c0,1.7,0.7,4.2-2.4,3.6c-1.7-0.3-3.7,1.4-4.8-2.6c-1.6-5.7-5.7-10.8-10.5-14.8c-1.2-1-2.5-0.7-3.8-0.7
		c-27.5,0-55,0-82.5-0.1c-2.7,0-3.7,0.6-3.7,3.5c0.1,37.5,0.1,75,0,112.5c0,2.7,0.6,3.8,3.5,3.7c33-0.1,66-0.1,99,0
		c2.7,0,3.9-1,4.5-3.3c1.6-5.5,4-10.8,6.2-16c1.9-4.6,4.7-9,6.5-13.7c0.7-1.9,2-1.4,3.2-1.4c5.5-0.1,11,0,17.2,0
		c-2.7,6.5-5.2,12.5-7.7,18.6c-2.8,6.6-5.7,13.1-8.3,19.8c-1,2.6-2.2,3.7-5.2,3.7c-62-0.1-124-0.1-186-0.2c-1.4,0-3.9,1.4-4-1.9
		c-0.1-2.4-0.1-4.2,3.1-5.1c9.7-2.6,17.8-14,17.8-24.6c0.1-96.3,0.1-192.6,0-288.9c0-8.8-9-23.3-19.4-23.4c-2.4,0-1.5-1.9-1.4-2.9
		c0.1-1.4-1.3-3.5,1.3-4c1.1-0.2,2.3-0.1,3.5-0.1c61.3,0,122.7,0,184-0.1c3.8,0,5.4,1.3,6.7,4.6
		C1025.7,79.1,1030.9,91.4,1036.4,104.4z"/>
	<path class="st1" d="M2624.3,371.3c-5.7,13.6-11.2,26.5-16.4,39.4c-1.2,2.8-3.2,2.6-5.5,2.6c-38.7,0-77.3-0.1-116,0
		c-24.1,0.1-48.2-0.7-72.3,0.5c-1.1,0.1-1.9-0.9-1.7-1.1c1.7-1.7-0.9-5.2,2.3-6c10-2.3,14.4-10.1,18.6-18.2c0.8-1.5,0.8-3.2,0.8-4.8
		c0-97.1,0-194.3,0-291.4c0-10-9.5-21.2-19.4-22.9c-2.5-0.4-1.5-2.2-1.5-3.4c0-1.3-1.2-3.6,1.8-3.6c1.2,0,2.3,0,3.5,0
		c61.2,0,122.3,0,183.5-0.1c3.8,0,5.4,1.3,6.7,4.5c5,12.4,10.3,24.6,15.7,37.6c-6.4,0-12.3-0.1-18.2,0.1c-1.9,0.1-2.1-1.3-2.6-2.3
		c-4.5-10.3-9.1-20.6-13.3-31.1c-0.8-1.9-1.7-1.6-2.9-1.6c-33.3,0-66.7,0-100-0.1c-4.5,0-3.1,2.9-3.1,5c-0.1,51.5,0,103,0,154.5
		c0,15.2,0.1,30.3-0.1,45.5c0,3.1,0.6,4.3,4,4.2c27.3-0.1,54.7-0.1,82-0.1c5.2,0,11.7-5.7,13.9-12.4c0.9-2.7,1.2-5.4,5.3-4.8
		c1.9,0.3,2.6,0.7,2.6,2.7c-0.1,12.3-0.1,24.7,0,37c0,2.1-0.9,2.8-2.7,2.4c-1.3-0.3-3.4,1.7-4-1.8c-1.1-6.9-6.2-11.2-11.5-15
		c-0.8-0.6-2.3-0.4-3.4-0.4c-27.3,0-54.7,0-82-0.1c-3.2,0-4.2,0.8-4.2,4.1c0.1,37.2,0.1,74.3,0,111.5c0,3.2,0.7,4.2,4.1,4.2
		c32.7-0.1,65.3-0.1,98,0c3.1,0,4.2-1.3,5.2-3.9c3.8-9.3,7.8-18.5,11.9-27.7c0.7-1.6,2-3.1,4.5-3
		C2613,371.5,2618.3,371.3,2624.3,371.3z"/>
	<path class="st1" d="M1703,405.7c-0.3,2.9-0.9,5.6-3,7.7c-31.8,0-63.6,0-95.5-0.2c-1.5,0-4.3,1.8-4.5-1.9c-0.1-2.6-0.1-4.2,3.4-5.2
		c6.7-1.8,10.9-7,14.4-12.9c3-5,3.2-10.4,3.2-16c-0.1-94.6-0.1-189.3,0-283.9c0-8.5-8.7-20.8-16.1-23.9c-2-0.8-6,1.2-5.1-4.1
		c0.5-2.7,1.2-3.2,3.6-3.1c10.5,0.1,21,0,31.5,0c17.7,0,35.3,0,53,0.1c1.4,0,3.9-1.4,4.2,1.8c0.2,2.5,0,3.9-3.2,4.7
		c-5.6,1.3-9.1,5.2-12.7,10c-5.1,6.7-5.1,13.7-5.1,21.2c0,100,0.1,199.9-0.1,299.9c0,4.9,1.2,6.2,6,5.9
		C1685.6,405.4,1694.3,405.7,1703,405.7z"/>
	<path class="st1" d="M1736,413.2c0.4-3,2.4-5.2,4-7.6c10.7,0,21.3,0,32,0.1c2.4,0,4-0.2,5.4-3c4.6-9.3,8.9-18.7,12.7-28.4
		c0.9-2.3,1.9-3.3,4.5-3.2c4,0.2,8,0.1,12,0.1c4.5,0,5.8,1.9,3.3,5.7c-6.2,9.8-9.4,20.8-14,31.3c-1.5,3.5-3.1,5.2-7.4,5.1
		C1771,413.1,1753.5,413.3,1736,413.2z"/>
	<path class="st0" d="M2612,536c0-7.1,3.6-11.5,9.4-11.5c5.6,0,10.3,3.9,10.4,8.7c0.2,5.6-6.9,11.7-13.3,11.5
		C2614.3,544.5,2611.9,541.3,2612,536z"/>
	<path class="st0" d="M1170.8,62.6c-0.6-0.1-1.2-0.3-1.8-0.4c0.2-0.5,0.3-1.4,1.1-1.1C1170.4,61.2,1170.5,62.1,1170.8,62.6z"/>
	<path class="st0" d="M1254,62.2c-0.3,0-0.7,0-1,0c0.1-0.3,0.2-0.6,0.4-0.9C1253.6,61.6,1253.8,61.9,1254,62.2z"/>
	<path class="st1" d="M2045.4,373.3c-3.7,4.2-7.7,8-12.4,11.1C2035.3,378.6,2039.8,375.4,2045.4,373.3z"/>
	<path class="st1" d="M2033.1,384.4c-0.7,0.6-1.4,1.3-2.1,1.9C2031.5,385.4,2031.3,383.8,2033.1,384.4z"/>
	<path class="st2" d="M1990,537.3c-0.2,0.2-0.4,0.4-0.6,0.6c-0.1-0.1-0.1-0.3-0.2-0.4C1989.5,537.4,1989.8,537.4,1990,537.3
		C1990,537.3,1990,537.3,1990,537.3z"/>
	<path class="st2" d="M2705.9,612.3c0.1-0.1,0.2-0.2,0.2-0.3C2706.1,612.1,2706,612.1,2705.9,612.3
		C2705.9,612.2,2705.9,612.3,2705.9,612.3z"/>
	<path class="st2" d="M2008.8,401.3c-0.4-1.2,0.6-0.9,1.1-1.2C2009.6,400.5,2009.2,400.9,2008.8,401.3z"/>
	<polygon class="st2" points="903,627.3 903.2,627.1 903,627.2 	"/>
</g>
</svg>
