<?xml version="1.0" encoding="utf-8"?>
<!-- Generator: Adobe Illustrator 26.2.1, SVG Export Plug-In . SVG Version: 6.00 Build 0)  -->
<svg version="1.1" id="Layer_1" xmlns="http://www.w3.org/2000/svg" xmlns:xlink="http://www.w3.org/1999/xlink" x="0px" y="0px"
	 width="289px" height="72px" viewBox="0 0 289 72" style="enable-background:new 0 0 289 72;" xml:space="preserve">
<style type="text/css">
	.st0{fill:#FFFFFF;}
</style>
<g>
	<g>
		<path class="st0" d="M20.5,50.9v-0.8c1.8,0,2.6-2.5,2.6-2.5V10.2c0,0-0.8-2.5-2.6-2.5V6.9H32v0.8c-1.9,0-2.6,2.5-2.6,2.5v39.7
			h13.2l1.9-4.3H47l-2.2,5.3H20.5z"/>
		<path class="st0" d="M52.2,50.9v-0.6c1.5,0,2.1-2,2.1-2V18.9c0,0-0.6-2-2.1-2v-0.6h9.1v0.6c-1.5,0-2.1,2-2.1,2v29.4
			c0,0,0.6,2,2.1,2v0.6H52.2z"/>
		<path class="st0" d="M74.7,50.9L68.8,19c-0.1-0.2-0.7-2-2.1-2v-0.7H76v0.6c-1.4,0-2,1.6-2.2,2l5.4,29.6l5.6-29.6
			c0-0.2-0.7-2-2.1-2v-0.7h5.1v0.7c-1.4,0-2,1.7-2.2,2l-6,32H74.7z"/>
		<path class="st0" d="M93.3,50.9v-0.6c1.5,0,2.1-2,2.1-2V18.9c0,0-0.6-2-2.1-2v-0.6h9.1v0.6c-1.5,0-2.1,2-2.1,2v29.4
			c0,0,0.6,2,2.1,2v0.6H93.3z"/>
		<path class="st0" d="M127.4,50.9l-16.8-30.7v28.1c0,0,0.6,2,2,2v0.6h-4.8v-0.6c1.5,0,2.1-2,2.1-2V18.9c-0.5-0.9-0.9-2-2.1-2v-0.6
			h5.6l14.3,25.9V18.9c0,0-0.6-2-2.1-2v-0.6h4.9v0.6c-1.5,0-2.1,2-2.1,2v32H127.4z"/>
		<path class="st0" d="M158.3,51c-0.8-0.5-2.6-1.2-3.9-1.2c-0.3,0-0.5,0-0.7,0.1c-1.7,0.7-3.3,1-4.9,1c-8.2,0-14.5-8.8-14.5-17.3
			s6.3-17.3,14.5-17.3c1,0,2.1,0.1,3.2,0.4c0.2,0.1,0.5,0.1,0.7,0.2c0.5-0.3,0.8-0.9,0.8-0.9h0.5v4.9h-0.7c0-1-0.5-2.3-1.1-3.3
			c-0.2-0.1-0.4-0.2-0.6-0.3c-0.7-0.2-1.5-0.2-2.1-0.2c-6.9,0-10.2,8.1-10.2,16.5s3.2,16.5,10.1,16.5c0.7,0,1.4-0.1,2.1-0.2
			c0.9-0.3,1.8-0.9,2.2-1.2V34.8h-5.6V34h12.6v0.6c-1.5,0-2,2-2,2V51H158.3z"/>
		<path class="st0" d="M166.7,47.9c-0.6,0.6-0.8,2.5-0.8,2.9h-0.7v-6.5h0.7c0,1.9,0.9,3,2.4,3.9s3.3,1.4,5.2,1.4
			c1.4,0,2.8-0.3,4-0.8c2.7-1.1,4.1-3.2,4.1-5.4c0-2-1.2-4-3.6-5.4c-2.9-1.6-6.8-2.3-9.6-4.7c-2.3-1.9-3.4-4.5-3.4-7.1
			c0-3.4,1.9-6.8,5.5-8.7c1.7-0.9,3.6-1.3,5.6-1.4c2,0,4,0.5,5.8,1.5c0.1-0.2,0.2-0.6,0.3-1.1h0.7v5.3h-0.7v0.1
			c0-3.1-2.6-4.8-5.2-4.8c-4.8,0-7.9,3-7.9,6.4c0,1,0.2,2,0.8,2.9c3.1,5.5,10.3,4.9,13.9,9.6c1.2,1.6,1.8,3.5,1.8,5.4
			c0,2.6-1.2,5.2-3.5,7c-1.5,1.1-3.3,1.9-5.2,2.2c-0.6,0.1-1.3,0.2-1.9,0.2C172,50.9,168.8,49.9,166.7,47.9z"/>
		<path class="st0" d="M195.3,50.9v-0.6c1.5,0,2.1-2,2.1-2V17h-5.9l-1.5,3.4h-2l1.7-4.1h20.1l1.8,4.1h-1.9l-1.5-3.4h-5.9v31.3
			c0,0,0.6,2,2.1,2v0.6H195.3z"/>
		<path class="st0" d="M212.9,33.6c0-9.5,6.3-17.3,14.1-17.3s14.1,7.7,14.1,17.3s-6.3,17.3-14.1,17.3S212.9,43.1,212.9,33.6z
			 M236.2,33.6c0-9.2-4.1-16.6-9.2-16.6s-9.1,7.5-9.1,16.6c0,9.2,4.1,16.7,9.1,16.7S236.2,42.8,236.2,33.6z"/>
		<path class="st0" d="M265.4,50.9l-16.8-30.7v28.1c0,0,0.6,2,2,2v0.6h-4.8v-0.6c1.5,0,2.1-2,2.1-2V18.9c-0.5-0.9-0.9-2-2.1-2v-0.6
			h5.6l14.3,25.9V18.9c0,0-0.6-2-2.1-2v-0.6h4.9v0.6c-1.5,0-2.1,2-2.1,2v32H265.4z"/>
	</g>
	<g>
		<path class="st0" d="M67.4,64.9L67.4,64.9c0.3-0.1,0.4-0.5,0.4-0.5v-6.1c0,0-0.1-0.4-0.4-0.4v-0.1h2.1c1.6,0,2.4,1.6,2.4,3.3
			c0,1.9-0.9,3.8-2.5,3.8H67.4z M70.8,61c0-1.6-0.5-3.1-1.7-3.1h-0.3v6.9h0.2C70.1,64.8,70.8,62.8,70.8,61z"/>
		<path class="st0" d="M75.9,64.9L75.9,64.9c0.3-0.1,0.4-0.5,0.4-0.5v-6.1c0,0-0.1-0.4-0.4-0.4v-0.1h4l0.4,0.9h-0.4l-0.4-0.8h-2.2
			v4.3h1.8c0.1-0.1,0.2-0.2,0.2-0.4h0.1v0.9h-0.1c0-0.2-0.1-0.3-0.2-0.4h-1.8v2.4h2.2l0.3-0.7h0.4l-0.3,0.9H75.9z"/>
		<path class="st0" d="M84.8,64.3c-0.1,0.1-0.2,0.5-0.2,0.6h-0.1v-1.3h0.1c0,0.4,0.2,0.6,0.5,0.8s0.7,0.3,1.1,0.3
			c0.3,0,0.6-0.1,0.8-0.2c0.6-0.2,0.9-0.7,0.9-1.1c0-0.4-0.2-0.8-0.7-1.1c-0.6-0.3-1.4-0.5-2-1c-0.5-0.4-0.7-0.9-0.7-1.5
			c0-0.7,0.4-1.4,1.1-1.8c0.4-0.2,0.8-0.3,1.2-0.3s0.8,0.1,1.2,0.3c0,0,0-0.1,0.1-0.2h0.1v1.1h-0.2l0,0c0-0.6-0.5-1-1.1-1
			c-1,0-1.6,0.6-1.6,1.3c0,0.2,0.1,0.4,0.2,0.6c0.6,1.1,2.1,1,2.9,2c0.3,0.3,0.4,0.7,0.4,1.1c0,0.5-0.2,1.1-0.7,1.4
			c-0.3,0.2-0.7,0.4-1.1,0.5c-0.1,0-0.3,0-0.4,0C85.9,64.9,85.2,64.8,84.8,64.3z"/>
		<path class="st0" d="M94.1,64.9L94.1,64.9c0.3-0.1,0.4-0.5,0.4-0.5v-6.5h-1.2l-0.3,0.7h-0.4l0.4-0.9h4.2l0.4,0.9h-0.6l-0.3-0.7
			h-1.2v6.5c0,0,0.1,0.4,0.4,0.4v0.1H94.1z"/>
		<path class="st0" d="M101.6,64.9L101.6,64.9c0.3-0.1,0.4-0.5,0.4-0.5v-6.1c0,0-0.1-0.4-0.4-0.4v-0.1h1.9v0.1
			c-0.3,0-0.4,0.4-0.4,0.4v6.1c0,0,0.1,0.4,0.4,0.4v0.1H101.6z"/>
		<path class="st0" d="M111.9,64.9l-3.5-6.4v5.8c0,0,0.1,0.4,0.4,0.4v0.2h-1v-0.1c0.3,0,0.4-0.4,0.4-0.4v-6.1
			c-0.1-0.2-0.2-0.4-0.4-0.4v-0.1h1.2l3,5.4v-4.8c0,0-0.1-0.4-0.4-0.4V58h1v0c-0.3,0-0.4,0.4-0.4,0.4v6.6H111.9z"/>
		<path class="st0" d="M119.1,64.9L119.1,64.9c0.3-0.1,0.4-0.4,0.4-0.5l-0.3-1.8h-1.6l-0.3,1.7c0,0,0.1,0.4,0.4,0.4v0.2h-1.1v-0.1
			c0.3,0,0.4-0.3,0.4-0.4l1.3-6.6h1.6v0.1c-0.2,0-0.4,0.2-0.4,0.4l1.1,6.1c0,0,0.2,0.4,0.5,0.4v0.1H119.1z M118.4,58.2l-0.8,4.2h1.6
			L118.4,58.2z"/>
		<path class="st0" d="M125.6,64.9L125.6,64.9c0.3-0.1,0.4-0.5,0.4-0.5v-6.5h-1.2l-0.3,0.7h-0.4l0.4-0.9h4.2l0.4,0.9h-0.4l-0.3-0.7
			h-1.2v6.5c0,0,0.1,0.4,0.4,0.4v0.1H125.6z"/>
		<path class="st0" d="M133.1,64.9L133.1,64.9c0.3-0.1,0.4-0.5,0.4-0.5v-6.1c0,0-0.1-0.4-0.4-0.4v-0.1h1.9v0.1
			c-0.3,0-0.4,0.4-0.4,0.4v6.1c0,0,0.1,0.4,0.4,0.4v0.1H133.1z"/>
		<path class="st0" d="M139.1,61.3c0-2,1.3-3.6,2.9-3.6c1.6,0,2.9,1.6,2.9,3.6s-1.3,3.6-2.9,3.6S139.1,63.3,139.1,61.3z M143.9,61.3
			c0-1.9-0.9-3.4-1.9-3.4s-1.9,1.5-1.9,3.4s0.8,3.5,1.9,3.5S143.9,63.2,143.9,61.3z"/>
		<path class="st0" d="M153.3,64.9l-3.5-6.4v5.8c0,0,0.1,0.4,0.4,0.4v0.2h-1v-0.1c0.3,0,0.4-0.4,0.4-0.4v-6.1
			c-0.1-0.2-0.2-0.4-0.4-0.4v-0.1h1.2l3,5.4v-4.8c0,0-0.1-0.4-0.4-0.4V58h1v0c-0.3,0-0.4,0.4-0.4,0.4v6.6H153.3z"/>
		<path class="st0" d="M168.6,64.9L168.6,64.9c0.3-0.1,0.4-0.4,0.4-0.5l-0.3-1.8h-1.6l-0.3,1.7c0,0,0.1,0.4,0.4,0.4v0.2h-1.1v-0.1
			c0.3,0,0.4-0.3,0.4-0.4l1.3-6.6h1.6v0.1c-0.2,0-0.4,0.2-0.4,0.4l1.1,6.1c0,0,0.2,0.4,0.5,0.4v0.1H168.6z M167.9,58.2l-0.8,4.2h1.6
			L167.9,58.2z"/>
		<path class="st0" d="M175.1,64.9L175.1,64.9c0.3-0.1,0.4-0.5,0.4-0.5v-6.1c0,0-0.1-0.4-0.4-0.4v-0.1h2.3c1.3,0,1.9,1,1.9,2
			s-0.6,2-1.9,2h-0.9v2.6c0,0,0.1,0.4,0.4,0.4v0.1H175.1z M178.1,59.7c0-0.9-0.4-1.8-1.2-1.8h-0.5v3.7h0.5
			C177.8,61.6,178.1,60.7,178.1,59.7z"/>
		<path class="st0" d="M183.4,64.9L183.4,64.9c0.3-0.1,0.4-0.5,0.4-0.5v-6.1c0,0-0.1-0.4-0.4-0.4v-0.1h2.3c1.3,0,1.9,1,1.9,2
			s-0.6,2-1.9,2h-0.8v2.6c0,0,0.1,0.4,0.4,0.4v0.1H183.4z M186.6,59.7c0-0.9-0.4-1.8-1.2-1.8h-0.5v3.7h0.5
			C186.2,61.6,186.6,60.7,186.6,59.7z"/>
		<path class="st0" d="M193.4,64.9L193.4,64.9c0.3-0.1,0.4-0.4,0.4-0.5l-0.3-1.8h-1.6l-0.3,1.7c0,0,0.1,0.4,0.4,0.4v0.2h-1.1v-0.1
			c0.3,0,0.4-0.3,0.4-0.4l1.3-6.6h1.6v0.1c-0.2,0-0.4,0.2-0.4,0.4l1.1,6.1c0,0,0.2,0.4,0.5,0.4v0.1H193.4z M192.8,58.2l-0.8,4.2h1.6
			L192.8,58.2z"/>
		<path class="st0" d="M202.9,64.5c-0.6-0.7-1-2.2-1.5-2.8h-0.2v2.6c0,0,0.1,0.4,0.4,0.4v0.2h-1.9v-0.1c0.3,0,0.4-0.4,0.4-0.4v-6.1
			c0,0-0.1-0.4-0.4-0.4v-0.1h2.3c1.3,0,1.9,1,1.9,2c0,0.9-0.5,1.8-1.5,2c0.6,0.6,0.8,1.8,1.4,2.5c0.1,0.1,0.2,0.1,0.2,0.1
			c0.1,0,0.2-0.1,0.2-0.3V64h0.2c-0.1,0.6-0.5,0.9-0.9,0.9C203.3,64.9,203.1,64.8,202.9,64.5z M202.9,59.7c0-0.9-0.4-1.8-1.2-1.8
			h-0.5v3.7h0.5C202.6,61.6,202.9,60.7,202.9,59.7z"/>
		<path class="st0" d="M208.8,64.9L208.8,64.9c0.3-0.1,0.4-0.5,0.4-0.5v-6.1c0,0-0.1-0.4-0.4-0.4v-0.1h4l0.4,0.9h-0.4l-0.3-0.7h-2.2
			v4.3h1.8c0.1-0.1,0.2-0.2,0.2-0.4h0.1v0.9h-0.1c0-0.2-0.1-0.3-0.2-0.4h-1.8v2.4h2.2l0.3-0.7h0.4l-0.4,0.9h-4V64.9z"/>
		<path class="st0" d="M217.2,64.9L217.2,64.9c0.3-0.1,0.4-0.5,0.4-0.5v-6.1c0,0-0.1-0.4-0.4-0.4v-0.1h1.9v0.1
			c-0.3,0-0.4,0.4-0.4,0.4v6.5h2.2l0.3-0.7h0.4l-0.4,0.9h-4V64.9z"/>
	</g>
</g>
</svg>
