<?xml version="1.0" encoding="utf-8"?>
<!-- Generator: Adobe Illustrator 26.2.1, SVG Export Plug-In . SVG Version: 6.00 Build 0)  -->
<svg version="1.1" id="Layer_1" xmlns="http://www.w3.org/2000/svg" xmlns:xlink="http://www.w3.org/1999/xlink" x="0px" y="0px"
	 width="3525px" height="949.8px" viewBox="0 0 3525 949.8" style="enable-background:new 0 0 3525 949.8;" xml:space="preserve">
<style type="text/css">
	.st0{fill:#AF967E;}
	.st1{fill:#020202;}
	.st2{fill:#FEFEFE;}
</style>
<g>
	<path class="st0" d="M2369.7,416.3c12.8-0.3,18.9,10.5,19.4,20.8c0.7,14.1-3.1,26.8-9.9,39.1c-10,18.2-17.1,37.6-22.2,57.7
		c0,0.2,0,0.4-0.1,0.5c-1.4,2.4-4.1,5.6-2.3,7.5c1.4,1.4,5.6,0.5,8.5,0.1c19.5-2.1,39-3.5,58.5-4.9c27.7-2,55.5-2.5,83.3-1.6
		c10.7,0.3,21.5,1.2,32,3.7c2.7,0.7,5.4,1.5,7.9,2.9c3.6,2,3.7,4.8,1.7,7.9c-0.5,0.8-1.3,1.5-2.1,2.1c-5.7,4.9-28.3,7.3-34.5,0.2
		c-3.8-4.4-8.3-4.1-13.2-4.1c-28.2-0.2-56.3-0.1-84.4,1.4c-15,0.8-29.9,2.6-44.9,3.5c-5,0.3-9.9,1-14.8,1.1
		c-2.4,0.1-3.5,0.8-4.2,3.1c-6.4,20.4-13.4,40.5-19.7,60.9c-7.1,23-13.5,46.2-19,69.7c-4.7,19.9-8.2,40.1-10.8,60.4
		c-1.9,15.1-3.1,30.3-3.8,45.5c-0.3,7.1,0.6,14.3,2,21.2c1.1,5.2,2.3,10.9,8.1,12.8c6,2,10.3-2.3,14.4-5.8
		c9.6-8.3,17.2-18.4,24.4-28.8c11-16,20.7-32.8,30.1-49.9c9.7-17.6,18.7-35.4,27.1-53.6c6.3-13.5,12.8-27,16-41.7
		c1.2-5.4,6.5-8.3,11.6-6.4c2.5,0.9,2.6-1,3.3-1.9c5.6-8,11.9-15.5,19.1-22.3c12-11.3,26-13.1,41.3-8.9c4.8,1.3,9.4,11.4,8.1,16.6
		c-2.2,8.7-7.2,15.6-14.3,20.8c-10.2,7.5-20.6,14.6-32.5,19.3c-2.4,0.9-4.3,2.9-5.3,5.1c-4.9,10.5-6,21.3-1.2,32
		c3.9,8.7,12.3,10.4,22.7,8.2c13.2-2.8,24.8-9.5,36.2-16.3c16.6-9.9,32.3-21.2,47.7-32.8c17.3-13,33.7-27.3,50.9-40.5
		c9.2-7.1,17.7-15.3,28.3-20.4c12.8-6.2,19.2-2.6,19.9,10.4c0.7,12.1-3,23.5-5.7,35.1c-1.9,8.1-4.2,16.2-5.3,24.6
		c2.8-6,5.9-11.8,8.4-17.9c5.5-13.1,11.4-25.9,18-38.4c8.2-15.5,15.8-31.3,25.6-45.8c6.3-9.3,12.2-18.9,21.6-25.7
		c4.4-3.2,9.4-3.4,14.2-2.6c3.5,0.5,5.4,3.3,6.2,7c2.3,10.4-0.1,20.4-2.5,30.4c-5.6,24-14.3,47-22.1,70.4
		c-2.3,6.9-4.3,13.9-6.3,20.8c-0.3,1.2-0.9,3,0.3,3.7c1.5,0.9,2.4-0.8,3.1-1.7c8.3-9.3,17.3-17.9,27.4-25.2c5.5-4,11.4-7.2,18.7-6.6
		c4.3,0.4,6.9,3.2,6.1,7.5c-1.8,10.2-4.3,20.4-5.5,30.7c-1,8.3-1.9,17,0.8,25.2c3.8,11.8,12.2,11,20,7.8c14.9-6,26.7-16.6,38.8-26.8
		c14.9-12.6,27.9-27,41.7-40.7c2-2,3.9-3.7,7.3-3.3c2.3,0.3,3.1-2.3,4.3-4c8.6-11.6,17.5-22.9,32.1-27.6c8-2.6,16.1-2,23.9,0.5
		c8,2.5,11.1,11.9,7.8,21.1c-3.1,8.5-9.7,13.9-16.5,19c-9.1,6.9-19.2,12.2-29.3,17.3c-2.5,1.3-4.8,3-5.4,5.5
		c-1.7,7.1-4.5,13.8-3.3,21.7c2.2,14.7,10.8,17.1,21.8,14.7c9.4-2.1,18.1-6.3,26.6-11.1c17-9.6,32.8-21,48.4-32.7
		c9.7-7.3,19-15.3,28.3-23.2c9.4-8,18.6-16.3,27.9-24.4c7.6-6.6,14.6-13.8,22.5-19.9c5.8-4.4,12-8.1,19.5-4.4
		c7.1,3.5,8.6,10.4,9.2,17.4c1.2,12.7-4,24-8.4,35.4c-5.4,14-12.7,27.2-15.9,42.1c-0.3,1.3-0.4,2.6-0.7,4.7c3.2-2.7,5.1-5.5,6.8-8.3
		c6.8-11,15.1-20.9,24.5-29.8c6-5.6,12.6-10.5,21.1-12.1c5.8-1.1,11.1,1.1,13.9,6.3c4,7.4,5.1,15.6,5.9,23.9
		c0.8,8.9,1.1,17.9,2.6,26.7c2,11.6,7.7,14.2,18.4,9.3c10.8-4.9,20.4-11.6,29.9-18.6c18.9-13.7,35.2-30.3,53-45.1
		c4.7-4,6.2-8.7,7.4-13.7c3.5-14.5,7.7-28.7,12-42.9c2.6-8.8,5-17.6,7.9-26.3c1.1-3.3,0.4-4.5-2.8-4c-10.1,1.7-20.4,0.4-30.5,2.5
		c-7.3,1.5-15,1.7-22.5,2.3c-7.7,0.6-15.3,1.6-22.9,2.8c-6.8,1-13.7,1.7-20.5,2.3c-8.7,0.8-17.4,1.7-26,2.6c-10,1-19.9,2.8-29.8,4.4
		c-3.1,0.5-6.1,1.2-9.3,0.8c-2.2-0.3-3.9-0.9-3.8-3.5c0.1-2.5,0.6-4.8,3.6-5.1c2-0.2,4-0.3,6-0.2c15.6,1.2,30.7-2.5,46-4.6
		c20-2.8,40-5.7,60-8.4c18.4-2.5,36.8-4.8,55.2-7.1c2.5-0.3,3.4-1.7,4-3.8c5.4-20,11.1-39.9,16.1-59.9c2.2-8.8,3.4-18,4.1-27
		c1.4-20.3,14.2-34.4,34.4-37c6.6-0.8,9.4,2.3,7.4,9c-2.7,9.4-5.7,18.6-8.8,27.9c-6,18-11.9,36-18.1,53.9
		c-3.4,9.8-7.4,19.4-10.2,29.5c-1,3.4,0.1,3.8,2.8,3.6c12.5-1.1,25.1-2,37.6-3.5c5.3-0.6,10.6-0.8,15.9-1.2
		c31.2-2.2,62.5-3.4,93.8-2.1c11.8,0.5,23.9,0.8,35.3,4.8c3.1,1.1,7.2,1.4,7,6.3c-0.2,4.6-3.4,6.6-7.2,7.7c-9.6,3-19.8,4.3-28.4-1
		c-9.3-5.6-18.9-4.7-28.5-4.9c-26.3-0.5-52.6-0.2-78.9,1.8c-16.6,1.3-33.2,2.7-49.9,3c-3.7,0-5.6,2.3-6.6,5.1
		c-7.8,23.7-15.9,47.4-22.8,71.4c-4.2,14.7-8.7,29.4-12.2,44.3c-5.5,23.7-10.7,47.5-13.7,71.8c-2.2,18.4-4.1,36.7-3.7,55.2
		c0.1,6.7,0.9,13.3,3.2,19.5c2.9,8.1,8.2,9.8,15.5,5.3c7.3-4.5,12.9-10.7,18.3-17.3c14-17.2,25.1-36.3,36.1-55.4
		c12.1-21.1,22.9-42.9,33.2-65c6.2-13.2,12.5-26.6,15.9-41c0.9-4,7.1-7.4,10.7-5.8c4.3,1.9,4.2,5.5,2.8,9.3
		c-6.7,18-14.9,35.3-23.2,52.6c-8.3,17.4-17.5,34.3-27,51c-14.9,26.3-30.8,51.9-52.1,73.7c-5.8,5.9-12,11.8-21,13.2
		c-5.8,1-10.7-0.5-14-5.4c-5.5-8.3-7.8-17.7-9.4-27.6c-3.1-19.6-1.7-39.4-1.9-59.1c-0.1-11.9,2-23.7,3.5-35.5
		c1.4-11.1,3.5-22,5.6-32.9c1.4-7.8,2.5-15.7,5.7-23.2c0.9-2.3,1.6-4.8,1.1-7.3c0,0,0.3-0.2,0.3-0.2l-0.3,0.2
		c-6.6,5.5-11.8,12.5-18.4,18.1c-11,9.3-21.6,18.9-33.3,27.4c-13.4,9.6-27.2,17.5-43.6,20.8c-11.2,2.2-20-2.5-25-11.2
		c-5.1-8.9-6.4-18.7-5.6-28.9c0.5-6.8-0.4-13.6-1-20.3c-0.3-3.4-2.8-4.9-6.1-3.2c-5.6,2.9-10.3,7.1-14.5,11.7
		c-12.5,13.4-21.5,29.1-30.4,44.9c-2.8,5-6.5,8.6-12.7,8.1c-4.9-0.4-8.5-4.4-9.1-10.1c-1.7-16.4,2.5-31.9,7.3-47.3
		c5.1-16.1,12.4-31.4,16.1-47.9c0.7-3.2,1.8-7.6-0.4-9.3c-2.5-2-5.2,1.8-7.4,3.5c-6.8,5.5-13,11.7-19.3,17.8
		c-9.6,9.3-20,17.8-29.8,27c-10.2,9.6-21.4,18.2-32,27.3c-9.4,8-19.2,15.5-29.7,21.8c-16.7,9.9-34.3,18.7-54.7,17.3
		c-14.1-1-31.3-12.8-33.8-27.9c-1.6-10-0.3-20.1,4.2-29.6c0.7-1.5,1.7-2.9,1.4-4.7c0.2-0.3,0.5-0.6,0.7-0.9
		c-0.1-0.1-0.2-0.2-0.4-0.3c-0.1,0.4-0.2,0.8-0.3,1.2c-4.7,2.8-7.8,7.5-11.7,11.2c-7.8,7.4-15.7,14.8-24.2,21.5
		c-6.8,5.5-13.6,11.2-20.9,16c-16,10.4-31.8,21.1-52.2,21.2c-9.6,0-16.7-7.9-18.7-16.2c-3.1-12.8-2.1-25.9,0.3-38.8
		c0.5-2.7,0.2-5.1,0.1-8.8c-5.2,4.7-8.3,9.7-11.7,14.3c-5.2,7.2-9.4,15.1-16.2,21.1c-3.2,2.9-6.6,6.1-11.7,4.6
		c-5-1.5-8.9-8.3-8.2-13.6c1.8-13,5.3-25.6,9.3-38c10-30.7,20.3-61.3,30.4-92c0.9-2.7,3.3-6.5,0.5-8.2c-3-1.8-5.7,1.8-7.8,4
		c-8.9,9.1-15.5,20-21.8,31c-8.5,14.9-16.2,30.1-23.7,45.5c-6.7,13.8-13,27.8-19.3,41.8c-7.4,16.3-12.8,33.4-17.6,50.6
		c-1.9,6.6-6.4,10.7-11.1,9.7c-5.7-1.3-10.1-8.6-8.7-14.7c2.6-11.6,4.7-23.4,8.2-34.8c2.8-9.4,5.7-18.8,8.1-28.2
		c2.3-9.2,5.8-18.1,7.3-27.5c0.6-4,1.2-8.1,1.4-12.2c0.2-4.2-1.6-5.3-5.6-3.6c-7.4,3.2-13.7,8.1-19.9,13
		c-10.8,8.5-21.4,17.2-31.7,26.2c-11,9.6-22.1,19.2-33.7,28.1c-11,8.4-22.5,16.3-34.4,23.6c-12.6,7.6-25.9,14-40.2,16.6
		c-16.9,3.1-32.5-0.4-45-13.9c-4.4-4.8-6.7-10-8.5-15.8c-0.3-0.8,0.3-2.3-1.2-2.3c-1.1,0-1.7,0.9-2,1.9c-1.3,5.3-3.9,10.3-6.5,14.8
		c-5.2,9.1-9.4,18.6-14.5,27.7c-4.9,8.6-9.3,17.5-14.1,26.1c-4.3,7.5-8.9,14.9-13.4,22.3c-9.8,16.2-21.2,31.5-33.9,45.4
		c-6.6,7.3-14.2,14.3-24.7,16.4c-6.9,1.4-11.7-2.1-15.1-7.1c-4.4-6.4-6.2-14-7.5-21.6c-3.5-20.4-2.7-41-2-61.5
		c0.5-14.2,1.8-28.3,3.6-42.5c2-15.6,6.1-30.7,8.5-46.1c1.3-8.3,4.6-16.3,6.4-24.5c4.5-19.9,11.5-39.1,16.5-58.9
		c1-3.9,3.6-7.4,3.7-11.6c0,0,0.2-0.1,0.2-0.1l-0.2,0.2c-5.3,9.1-11.5,17.7-16.4,27.2c-3.6,6.9-9.1,12.7-13.5,19.2
		c-9,13.2-18.8,25.9-29.2,37.9c-12.8,14.7-26.3,28.9-43.7,38.8c-6.4,3.6-13,6-20.4,6c-6.8,0-11.5-3.3-15.3-8.5
		c-5.4-7.3-7.1-15.8-7.5-24.6c-0.1-1.5,1.1-3.5-0.8-4.5c-1.7-0.9-3,0.4-4.5,1.2c-3.7,1.8-6.3,4.7-8.9,7.7
		c-13.4,15.1-25.5,31.3-39.4,46c-6.3,6.7-12.7,13.4-20.6,18.3c-12.1,7.6-22.5,5.9-29.9-7.1c-1.9-3.3-3.5-6.7-5.2-10.1
		c-1.7-3.5-1.3-7.3-1.8-11.1c-0.7,0.3-1.4,0.3-1.5,0.6c-4.8,9.6-9.5,19.2-14.4,28.8c-3,5.9-6.1,11.9-9.5,17.5
		c-12.2,20-23.7,40.5-38.3,58.9c-7.4,9.3-14.7,19-24.6,25.8c-7.7,5.3-15.2,9.4-23.8,3.9c-4.6-3-6.7-8.1-8.3-13
		c-2.9-8.8-4.1-18.1-5.3-27.3c-0.9-6.7-1.3-13.6-1.3-20.2c0-6.7-0.4-13.7,0.4-20.5c0.7-6.2,0.4-12.5,0.8-18.8
		c0.8-11.3,2.8-22.4,4.1-33.6c2-17.9,7.2-35.1,10.4-52.8c0.1-0.6,0.4-1.1,1.1-2.8c-6.7,2.5-12.5,4.3-18.2,6.7
		c-12,5.1-23.5,11.3-34.3,18.4c-17.9,11.9-35.7,23.8-53.3,36.2c-7.8,5.5-8.9,10.7-8.5,18.9c0.8,14.9-3.9,29-9.1,42.8
		c-7.8,20.5-19.9,38.5-32.4,56.2c-5.3,7.5-11.5,14.5-17.5,21.5c-11.4,13.3-24,25.4-37.7,36.2c-11.6,9.2-24.2,17.5-38.9,20.9
		c-13.9,3.3-23.2,1.7-31.4-10.8c-1.1-1.7-1.5-3.4-1.7-5c-2-13,0.8-25.1,7.8-36.3c10-16.1,22.1-30.6,35.4-43.9
		c7.6-7.5,15.1-15.2,23.3-22.1c7.3-6.1,14-13,21.3-19.1c13.4-11.1,26.9-22.1,40.5-33c5.8-4.6,11.8-8.9,17.7-13.3
		c1-0.7,1.5-1.7,1.3-3c-2.6-18.1-7.3-26.1-27.6-29.8c-19.4-3.6-39.1-3-58.6-0.9c-11.1,1.2-22.3,1.4-33.4,2.8
		c-26.5,3.6-53.2,4.4-79.8,2.7c-14.5-0.9-29.1-4.2-40.2-15.1c-7.7-7.6-10.7-17.2-10.3-28.2c0.8-19.8,8-37.6,16.6-55.1
		c13.6-28,31.2-53.4,50.1-78c13.2-17.2,27.6-33.5,42.5-49.3c16.7-17.7,34.3-34.3,52.6-50.4c12.9-11.3,27-21,40.3-31.6
		c1.6,0,2.7-0.9,4-1.7c12.6-8.2,25.6-15.9,39.7-21.2c1.1-0.4,2.1-1,2.6-2.1c6,0.1,11.5-2.6,17.3-3.6c2.5-0.5,5.9,1.1,7.5-2.4
		c3.3,2.1,6.6,1.2,9.9,0.1c5,2.2,10.4,0.8,15.6,1.9c15.1,3.3,26.9,10.5,31.5,26c2.8,9.4,2.3,19,0.3,28.5
		c-5.9,28.1-20.2,52.2-35.5,75.9c-8.1,12.6-16.9,24.7-26.1,36.5c-3,3.9-6.4,7.2-10.8,9.5c-3.4,1.8-7,2.8-10.4,0.4
		c-3.3-2.3-4.1-6-3.7-9.8c0.6-6.3,3.8-11.2,8.1-15.6c16.6-17.1,32.1-35.2,45.7-54.7c11-15.7,21-32,25.5-51
		c1.2-5.1,1.2-10.3,0.5-15.4c-1.4-9.6-8.2-16-18.2-17c-9-0.9-17.9,0.1-26.5,3.3c-3.1,0.8-6.1,1.7-9.2,2.5c-6,1.9-12.1,3.6-17.5,7.2
		c-5.3,1.2-9.7,4.2-14.3,6.8c-10.9,6.2-21.8,12.6-31.3,21c-8.2,4.3-14.8,10.6-21.7,16.5c-45.1,38.5-84.3,82.3-117,131.8
		c-15.2,23-28.5,46.9-36.7,73.5c-2.5,8.3-4.8,16.8-4.2,25.5c1.1,15.7,11.4,25.2,28.5,27.6c16.9,2.4,33.6,0.9,50.3-1.4
		c18.1-2.5,36.4-3.9,54.6-5.5c15.8-1.4,31.6-1.7,47.4-1.1c12.2,0.5,24.2,2.3,35.6,7c9.2,3.8,16.8,9.7,21.7,18.4
		c2.2,3.9,3.7,3.8,7,1.4c27.3-19.9,55.3-38.8,84.5-56c8-4.7,15.9-10.4,24.9-12.5c6.9-1.7,8.5-5.4,9.9-11.1
		c5.7-22.4,12.4-44.5,19.4-66.6c1.2-3.8,0.8-5.1-3.5-4.6c-17.5,1.9-35.1,3.5-52.6,5.4c-19.8,2.1-39.7,4.5-59.5,6.6
		c-15.4,1.6-30.7,4-45.9,6.3c-3.3,0.5-7.1,1-7.3-3.4c-0.2-3.8,3.1-5.2,6.7-5c25.9,1.4,50.9-5.4,76.2-8.5
		c25.9-3.2,51.7-7.1,77.6-10.4c12.8-1.6,12.6-1.3,16.4-13.6c8.1-26.4,15.4-53,18.9-80.5c2.2-17.5,11-29.7,28.9-34
		c11.5-2.7,14.2,0.1,10.9,11.3c-2.2,7.2-4.6,14.4-7,21.6c-3.5,11.7-7.9,23-11.3,34.7c-2.3,7.9-5.7,15.7-8.3,23.6
		c-3,8.7-6.3,17.4-9.3,26.1c-1.6,4.4-0.2,6.2,4.6,5.7c7.4-0.7,14.8-1.6,22.3-2.1c10.1-0.7,20.1-2.1,30.2-2.7
		c29.1-1.8,58.1-3,87.3-2.1c13.7,0.4,27.4,1.1,40.8,4.8c3.2,0.9,6.2,1.8,6.7,5.4c0.6,3.8-1.6,6-4.9,7.7c-10.4,5.5-26.1,4.1-35.1-3.6
		c-1.5-1.2-2.9-1.4-4.6-1.4c-35.2-0.5-70.3,0.4-105.4,2.1c-14.3,0.7-28.5,2.1-42.8,2.8c-3.8,0.2-5.4,1.7-6.6,5.3
		c-15.9,46.8-30.9,93.8-41,142.3c-5.2,25.1-9,50.4-10.8,76c-0.9,13-1.6,25.9,1.2,38.8c0.1,0.3,0.1,0.7,0.2,1
		c3.3,12.7,10.4,15.3,20.7,7.2c10.3-8.1,18.2-18.5,25.5-29.3c28.6-42.8,52-88.3,71.2-136c1.3-3.2,2.1-6.7,3.1-10
		c1.9-5.8,5-8.1,10.8-6.8c3.1,0.7,3.4-1.5,4.4-2.8c8-10.6,16.9-20.3,29.5-25.5c11.4-4.7,22.4-4.3,32.7,3c1.9,1.3,3.6,3,5,4.8
		c4.7,6,3.7,9-3.2,12c-13,5.7-22.6,15.7-31.5,26.3c-10.7,12.7-19.6,26.5-25,42.3c-1.6,4.6-2.5,9.3-2.4,14.2c0.1,2.2-0.4,4.7,1.8,5.9
		c2.5,1.3,4.5-0.7,6.2-2.1c5.2-4.2,9.6-9.2,14-14.2c13.7-15.9,26.5-32.5,41.6-47.2c5.9-5.7,11.9-11.1,19.5-14.5
		c9.7-4.3,16.8-1.6,21.2,8c2.4,5.4,3.1,11.2,3.6,17c0.2,2.3,0,4.7,0.3,7c1,7.3,5.2,9.8,12,7c6.4-2.6,11.7-7,16.7-11.7
		c21.1-19.6,38.2-42.6,54.8-66c10-14.1,19.4-28.6,28.4-43.5c0.7-1.2,2.1-2.2,1.5-4.6c-9.3,0.9-18.7,1.6-28.1,2.6
		c-23.1,2.5-46.3,5.1-69.4,7.7c-18.3,2-36.7,4.3-54.9,7.3c-3.1,0.5-6.2,1.1-7.2-3c-0.7-3.1,2.2-5.6,6.7-5.4
		c16,0.8,31.6-2.3,47.4-4.6c15.5-2.3,31.1-4.5,46.7-6.4c15.9-2,31.8-4.4,47.7-6.5c2.3-0.3,4.7-0.8,6.9-0.6
		c13.3,1,15.7-9.9,20.4-18.4c6.8-12.2,8-26.2,11.9-39.3c4.3-14.5,7.5-29.4,11.1-44.1c0.2-0.6,0-1.3,0-2c2.3-3,2.4-6.7,3.2-10.1
		C2359.9,426.9,2362.6,420.2,2369.7,416.3z M1817.1,736.2c-1.5,0-2.3,1.2-3.3,2c-19.9,15.7-39.4,31.8-58.3,48.7
		c-21,18.7-41.6,38-58.8,60.4c-6.7,8.7-13,17.8-15.8,28.7c-3.4,13.2,3.3,21,16.8,19.3c4.7-0.6,9-2.4,13.1-4.6
		c10.4-5.5,19.4-13,27.6-21.3c29.4-29.6,52.8-63.4,69.5-101.6c4.4-10,8.7-20.2,9.4-31.3c0.1-0.2,0.3-0.4,0.4-0.6
		C1817.4,735.9,1817.3,736.1,1817.1,736.2z M2889.8,658.2c0.3-0.1,0.8-0.2,1.3-0.5c12.1-7.2,23.1-15.6,31.7-26.8
		c1.3-1.7,2.5-4,0.6-5.9c-1.8-1.8-4-0.8-6,0.3c-0.7,0.4-1.4,0.8-2.1,1.3c-9.5,6.9-17.5,15.3-24.4,24.7c-1.1,1.5-1.9,3.1-2.7,4.8
		C2887.8,657.2,2887.8,658.4,2889.8,658.2z M2456.6,658.3c0.7-0.3,1.2-0.4,1.6-0.7c11.9-7.1,22.9-15.4,31.4-26.5
		c1.4-1.8,2.9-4.3,0.8-6.3c-1.9-1.9-4.5-0.7-6.4,0.6c-5.9,3.8-11.1,8.4-15.8,13.6c-4.4,4.9-9.2,9.6-12.3,15.6
		C2455.1,656.1,2454.1,657.7,2456.6,658.3z"/>
	<path class="st0" d="M399.6,628.2c8.8-11.6,17-23.3,25.6-34.8c8.4-11.3,17.1-22.3,25.7-33.4c7.1-9.1,15.1-17.6,23.3-25.7
		c7.9-7.8,16-15.8,27.2-19.1c8.6-2.5,15,0.4,18.7,8.5c2.9,6.3,4.2,12.9,5,19.6c1.4,11.9,1.5,23.9,1,35.9c-0.9,22.5-2.4,45-3.7,67.6
		c-1.6,26.7-3.3,53.5-1.1,80.3c0.8,10,2.1,20,5.7,29.6c1.8,4.7,4.3,9,7.7,12.6c5.9,6.3,13.3,6,21,4.3c4-0.9,7.6-2.9,11.6-3.6
		c2.5-0.5,4.7-1.1,6.1,1.4c1.3,2.4,1.2,5-0.4,7.5c-4.2,6.2-10.3,8.3-17.2,7.2c-6.1-1-12.2-1.6-18.1-4.2
		c-11.2-4.8-18.9-12.6-23.9-23.6c-3.8-8.5-7.5-17-9.3-26.2c-1.5-7.7-3.1-15.5-3.2-23.3c-0.4-21.6-0.3-43.3,1-64.9
		c0.7-12.2,0.8-24.4,2-36.6c1.5-15.3,2.8-30.6,2.8-45.9c0-5.7-0.8-11.5-2-17c-2.2-9.5-11.4-11.6-19.2-5.3
		c-22.6,18.1-38.6,41.7-55.9,64.3c-8.3,10.8-15.9,22.2-23.7,33.5c-6.2,9.1-12.8,18.1-17.9,27.8c-3.8,7.2-5.6,15.5-8,23.4
		c-8,26.6-17.4,52.7-26.6,78.9c-2.6,7.5-5.1,15-8.3,22.2c-2.3,5.1-4.6,10.5-9.7,13.6c-5.5,3.4-10.1,0.8-10.6-5.7
		c-1.3-15,0.8-29.5,4.5-44c5.7-21.9,14.1-42.7,23.6-63.2c4.5-9.6,10-18.7,13.9-28.5c3.5-8.9,6-18.3,8.7-27.5
		c3.5-11.9,7.1-23.7,10.1-35.7c5.3-20.8,11.4-41.5,15.4-62.7c1.8-9.3,4.3-18.5,5.7-27.8c1.4-9.5,3.2-19,4.3-28.6
		c1.3-11.2,2.7-22.2,2.7-33.5c0-9.6-2.2-18.6-6.1-27.3c-4.8-10.6-16.6-11.3-26.6-6.3c-17.9,8.9-32.5,22.2-46.4,36.3
		c-8.2,8.3-16,17.1-23.9,25.6c-6,6.5-10.8,14-16.7,20.5c-10.3,11.3-18.9,23.8-27.9,36.1c-10.8,14.7-20.7,29.9-30.6,45.3
		c-10.5,16.4-20.6,32.9-30.4,49.7c-15.2,26.1-29.5,52.8-42.2,80.2c-4.1,8.9-8.9,17.4-12.1,26.8c-2,5.9-5.8,11.5-8,17.5
		c-3.1,8.3-6.3,16.6-9.7,24.6c-6.8,16.1-12.8,32.4-18.5,48.8c-4.4,12.6-8.4,25.3-12.8,37.8c-2.2,6.4-4.9,12.6-7.6,18.8
		c-0.9,2-2.5,3.7-4.7,4.2c-2.5,0.5-4.5,0.4-4.6-3.2c-0.2-11.2,1-22.2,3.5-33.2c2.6-11.1,4-22.5,6.4-33.7
		c3.2-14.6,6.9-29.1,10.5-43.7c4.4-17.9,9-35.8,13.6-53.7c5.5-21.7,11.2-43.4,17.3-64.9c5.4-19.3,10.3-38.7,15.7-58
		c3.7-13.3,8.1-26.5,12-39.8c3-10.2,5.7-20.4,8.9-30.5c3-9.3,5.5-18.8,8.4-28.2c4-12.8,8.1-25.5,11.9-38.4c2.1-7,4.2-14,7-20.8
		c3.4-8,5.1-16.6,7.7-24.9c2.8-8.9,6.5-17.5,9.2-26.4c3-9.6,7-19,10.9-28.3c3.7-8.7,7.7-17.3,11.9-25.8c1.8-3.8,5.2-6.4,8.5-8.8
		c4.7-3.5,9.7-1.5,10.8,4.3c1.2,6.2,0.6,12.5-0.4,18.8c-2,12.3-5.4,24.1-10.8,35.3c-1.7,3.5-3.4,7.7-8.4,8.4c-1.4,0.2-2,1.7-2.5,2.9
		c-7,19.2-14.2,38.3-20.6,57.7c-4.1,12.5-9.1,24.7-13.3,37.2c-6.5,19.1-12.8,38.3-19.2,57.5c-4.7,14.3-9.7,28.7-14.2,43.1
		c-21.7,68.4-41.7,137.4-56.8,207.6c-0.2,1-0.2,2,0.5,3.2c2.3-6,4.7-12,7-18c17.5-45,38.3-88.5,60.9-131.3
		c10.8-20.4,22.2-40.4,34.2-60c15.7-25.8,32.5-50.9,50.7-75.1c14.2-18.9,29.1-37.2,44.9-54.8c13.7-15.3,28.3-29.8,44.5-42.5
		c11.2-8.8,22.5-17.4,36.1-22.6c7-2.7,14.2-3.8,21.5-2.8c9.8,1.3,15.7,8,19.4,16.7c4.1,9.4,5.2,19.3,6.3,29.4
		c1.5,14.9,0,29.5-1.4,44.2c-2,19.2-5.8,38.2-10,57c-5.3,23.7-12.6,46.8-20,69.8C405.6,614.6,402.4,621.4,399.6,628.2z"/>
	<path class="st0" d="M901.2,452.2c-4.1,9.4-9.5,18.2-15.5,26.5c-3.1,4.3-4.8,9.4-6.6,14.4c-12.6,34.4-22.2,69.7-31.9,104.9
		c-6.8,24.5-13.1,49-18.5,73.9c-0.4,1.8-0.9,3.6-0.5,5.4c-1,0.6-1.1,1.4-0.2,2.6c0.1-1,0.2-1.8,0.3-2.5c4.6-8.7,7.3-18.1,10.9-27.2
		c12-30.1,23.8-60.5,41.7-87.8c5.5-8.4,10.6-17.3,19.1-23.4c6.8-4.9,13.9-7,21.7-3.7c8.3,3.5,10.7,10.6,10.6,19.1
		c-0.1,11.4-4.2,21.6-8.7,31.8c-6.5,14.9-15.3,28.5-24,42.1c-13.9,21.6-29.8,41.7-45.4,62.1c-2.6,3.4-2,4.9,1.2,7.1
		c3.6,2.4,7.1,4.8,10.9,6.9c12.3,6.8,23.2,3.7,34.2-3.6c15.8-10.5,30.3-22.6,45-34.4c6.5-5.2,12.2-11.1,18.2-16.9
		c2.4-2.3,4.2-5.1,8.2-5.9c2.7-0.5,3.8-4.3,5.5-6.7c7-9.7,14.6-18.8,24.9-25.2c10.5-6.5,21.9-6.8,33.2-2.3c5.1,2.1,7.7,6.5,7.8,12.2
		c0.1,6.2-1.7,11.3-6,16.1c-10.7,11.8-24,19.7-38.2,26.2c-5,2.3-7.8,5.8-9.3,10.8c-2.1,6.8-2.7,13.7-2.2,20.7
		c1.2,16.4,15.1,22.1,28.9,20.2c23.3-3.2,44.1-13.3,64.5-24.3c15.6-8.4,30.8-17.5,45-28.2c8-6.1,15.4-12.9,23.1-19.4
		c1.9-1.6,4.5-4.4,6.5-2.3c2.2,2.2-1.2,4.5-2.6,6.1c-7.4,8.2-15.8,15.4-25,21.7c-7.4,5.1-14.7,10.6-22.1,15.7
		c-10,6.9-20.6,12.7-31.3,18.2c-13.3,6.8-27.3,11.8-41.8,15.1c-20,4.5-39.3,4.1-56.6-8.5c-9.1-6.7-15.7-14.9-15-27.4
		c0.4-6.2,0.5-12.4,2.9-18.4c-6.5,4.8-12,10.3-18.2,15.1c-11.9,9.2-23.3,18.9-35.9,27.2c-6.2,4.1-12.3,7.9-19.6,9.8
		c-6,1.5-11.5,0.8-17-0.7c-12.3-3.3-22.1-11.2-31.9-18.9c-4.3-3.3-4.7-3.6-6.4,1.2c-6.1,17-10.9,34.3-13.7,52.2
		c-4,25.8-3.3,51.7-2,77.6c0.1,1.7,1,3.9-0.9,5c-2,1.2-3.9-0.4-5.4-1.6c-7-5.1-9.3-13-11.5-20.7c-3.3-11.3-3.3-23.1-3.5-34.8
		c-0.1-7,0.1-13.9-0.5-20.9c-0.6-7.2,1.2-14.4,1.7-21.6c0.5-7,1.4-14,2.1-21.1c1-9.1,2.7-18.1,4.1-27.1c1.9-11.7,4.6-23.2,7-34.8
		c3.4-16.5,8.4-32.5,12.6-48.8c3.4-13.1,7.7-26,12.4-38.7c3.4-9.4,6.1-19,10.4-28.1c0.5-1.1,1.3-2.3,0.4-4.1
		c-6.8,9.8-13.4,19.4-20,29c-11.2,16.3-22.8,32.3-34.7,48.1c-12.6,16.8-25.8,33.3-39.9,48.9c-11.9,13.2-24.1,25.9-39.8,34.6
		c-4.4,2.4-9.1,5.2-14.4,3.7c-8-2.3-13.8-11.8-13-20.9c0.3-3.4,0-6.9,1-10.3c0.5-1.7,0.5-3.8-1.5-4.9c-1.9-1-3.3,0.1-4.9,1.3
		c-10.3,8.1-18.8,17.7-27.1,27.9c-10.3,12.6-20.7,25.2-33,36c-6.5,5.7-13.6,10-22,12.5c-8.6,2.5-15.4-0.9-21.2-6
		c-10-8.8-11.2-19.6-6.8-32.1c5.1-14.7,13.6-27.2,23.3-39.1c10-12.4,21.3-23.3,34.4-32.3c12.3-8.4,25.5-13.8,40.8-12.4
		c8,0.7,16.1,6.5,18,12.9c1.5,4.9,0.5,6.9-4.3,8.6c-19.1,6.9-35,19-50.5,31.7c-11.3,9.4-21.7,19.7-29.9,32
		c-3.5,5.2-6.3,10.6-7.2,16.8c-0.3,1.8-1,4.2,1.2,5.5c1.9,1.1,3.5-0.3,5.1-1.2c5.6-3.4,10.3-7.9,15-12.4c16.7-16,32.5-33,50.2-48
		c8.1-6.8,16.2-13.9,26.5-17.3c4.1-1.4,8.5-1.5,12.6,0.7c4.3,2.4,4.9,6.7,5.8,10.9c1.3,6.5,0.3,12.9-1,19.2c-0.6,3.1-0.3,6,1.8,7.7
		c2,1.6,4.2-0.7,6.1-1.9c8-5,14.1-12.1,20.4-18.9c14.5-15.4,27.1-32.5,40.2-49c10-12.7,18.7-26.4,28.6-39.2
		c14.8-19.2,27.7-39.8,42.4-59.1c9-11.7,14.9-25,20-38.8c2.8-7.7,6.2-15.2,9.3-22.8c1.8-3.7,4.9-6.9,4.6-11.4
		c4.2-2.9,5.9-8.2,10.7-10.6c1.6-0.8,3.2-1.4,4.9-1.9c3.9-1.2,5.4,0.8,5.3,4.2c-0.1,4,0.5,7.8,2,11.6
		C901.9,444.3,902.9,449.2,901.2,452.2z M843.1,671.2c3-0.8,4.2-3.6,5.8-5.7c16.6-21.5,31.6-44.1,46-67.1
		c8.7-13.8,17.2-27.7,23-43.1c1.2-3.2,3.4-7.4-0.4-10.1c-3.7-2.7-7.7-0.7-11.1,1.7c-1.4,1-2.6,2-3.9,3.1c-4.7,4.3-8.6,9.2-12.2,14.5
		c-13.9,20.5-24.4,42.7-33.5,65.7C851.7,643.7,846.2,657.1,843.1,671.2c0,0.2-0.1,0.3-0.1,0.4C843.1,671.5,843.1,671.3,843.1,671.2z
		 M1034.1,627.3c0.1-3.2-3.1-4.3-6.8-2c-11.7,7.5-21,17.4-28.6,28.9c-0.7,1-1.9,2.4-0.9,3.6c1.1,1.2,2.5,0.2,3.6-0.5
		c11.4-7,22-15,30.5-25.5C1033,630.5,1033.9,629.1,1034.1,627.3z"/>
	<path class="st1" d="M1215.7,452.3c-14.5,0-29,0-43.5-0.1c-1.4,0-3.9,1.4-4-1.9c-0.1-2.5,0-4,3.2-4.9c9.8-2.7,15.5-10,18.4-19.4
		c0.6-2-0.7-4.5-1.1-6.8c-1.4-8.4-2.8-16.9-4.2-25.3c-1.1-6.1-2.3-12.2-3.4-18.2c-1.5-8.5-3-17.1-4.6-25.6c-0.5-2.8-1.3-5.6-1.2-8.5
		c0.1-2.2-1.6-2.1-3.1-2.1c-24.8,0-49.7,0-74.5,0c-2.2,0-3.1,0.6-3.5,2.9c-2.5,13.7-5.2,27.4-7.8,41c-2.3,12-4.4,24-6.8,36
		c-2,9.6,6.7,23.4,16.9,25.9c3,0.7,4.2,1.7,4,4.9c-0.3,4-3.2,2.2-4.8,2.2c-14.5,0.2-29,0.1-43.5,0c-1.5,0-4,1.3-3.8-2.1
		c0.1-2.1-0.2-3.9,2.8-4.8c11.9-3.7,17-13.3,19.4-24.5c2.2-10.1,3.6-20.5,5.9-30.6c2.2-9.6,3.1-19.4,5-29c1.4-7.1,2.9-14.2,4.1-21.3
		c1.4-8.4,3.2-16.8,4.9-25.1c1.6-8,3.8-16,4.8-24.1c1.2-10,4-19.6,5.3-29.5c1.3-9.5,3.8-18.8,5.7-28.3c1.9-9.6,3.4-19.3,5.2-28.9
		c1.9-9.8,4-19.5,5.9-29.3c1.5-7.9,2.6-15.9,4.1-23.8c2.1-11.3,4.4-22.5,6.6-33.7c0.8-4.4,1.2-8.8,2.8-13.1c0.8-2.1,1.4-2.8,3.6-2.8
		c23.3,0.1,46.7,0,70,0.1c1.5,0,3.5-0.8,3.5,2.1c0,2.1-0.1,3.5-2.5,4.4c-15.7,5.7-19.9,14.5-16.5,31.2c3.9,19.1,7,38.4,10.4,57.6
		c2.7,15.2,5.5,30.5,8.3,45.7c3.2,17.7,6.5,35.4,9.7,53.1c3.1,17,6.3,34.1,9.4,51.1c3.2,17.5,6.2,35.1,9.7,52.6
		c1.9,9.5,2.4,19.2,5.9,28.3c3.4,8.6,8.3,16,18.3,18c2.7,0.6,2.8,2.5,2.8,4.8c-0.1,3-2.2,1.9-3.6,1.9
		C1245,452.3,1230.3,452.3,1215.7,452.3z M1135.6,126.2c-0.7,0.9-1,1.1-1.1,1.4c-12.6,67.1-25.3,134.2-37.9,201.3
		c-0.5,2.5,0,3.2,2.6,3.2c23.7-0.1,47.3-0.1,71,0c3,0,3.3-1.1,2.9-3.5c-1-4.7-1.9-9.4-2.8-14.2
		C1158.7,251.9,1147.2,189.3,1135.6,126.2z"/>
	<path class="st1" d="M2040.1,452.2c2.3-7.2,4.8-14.4,7-21.6c3.3-11.2,0.6-14-10.9-11.3c-4.6-25.4-9.2-50.7-13.7-76.1
		c-0.5-2.7-1.2-3.8-4.3-3.8c-24.3,0.2-48.7,0.1-73,0c-2.9,0-3.9,0.8-4.4,3.7c-4.8,26.2-9.8,52.3-14.5,78.4
		c-1.6,8.6,8.1,21.4,17.7,23.8c2.1,0.5,3.7,0.8,3.5,3.7c-0.1,2.4-0.3,3.5-3.2,3.4c-15.3-0.2-30.7-0.1-46-0.1c-1.6,0-3.5,0.4-3.1-2.3
		c0.2-1.8-0.7-3.7,2.4-4.5c11.7-3,19.1-13.6,19.8-25.5c0.5-7.5,2.6-14.8,4-22.2c1.6-8.2,3.2-16.5,4.8-24.7
		c1.9-9.7,4.3-19.4,5.6-29.2c1.1-8.2,3.4-16.1,4.5-24.3c1-7.9,3.2-15.7,4.7-23.6c1.5-8,2.8-16.1,4.2-24.2c1.4-7.4,2.9-14.8,4.4-22.3
		c1.6-8,3-16.1,4.7-24.1c2.2-9.8,3.7-19.8,5.6-29.7c1.9-9.5,3.7-19,5.4-28.5c1.7-9.8,3.9-19.5,5.7-29.3c1.8-9.6,3.6-19.2,5.1-28.9
		c0.3-2.2,1.7-4,1.3-6.6c-0.3-2,2.4-1,3.6-1c17.3-0.1,34.7-0.1,52-0.1c6,0,12-0.1,18,0.1c1.4,0,3.6-1.1,3.7,1.8
		c0.1,2.2,0.3,4.3-2.7,4.8c-8.4,1.3-12.4,7.4-16.4,14.1c-3.2,5.5-1.1,10.7-0.3,15.8c3.7,21.8,7.7,43.5,11.8,65.2
		c4.2,22.5,8.6,45,12.7,67.6c3.5,19.3,6.8,38.7,10.3,58.1c3.4,18.7,6.9,37.3,10.4,56c2.2,12.3,4,24.6,6.7,36.8
		c2.5,11.3,7.7,20.9,20.2,24.1c2.7,0.7,2.8,2.5,2.8,4.8c0,2.6-1.7,2-3.1,2C2084.8,452.3,2062.5,452.2,2040.1,452.2z M1982.5,125.9
		c-0.7,1.5-1,1.9-1.1,2.4c-12.4,66.3-24.8,132.6-37.4,198.8c-0.9,4.5,0,5.2,4.2,5.1c22.5-0.2,45-0.2,67.4,0c4.4,0,4.8-1.3,4-5.1
		c-5.3-28.2-10.5-56.5-15.7-84.8C1996.9,203.8,1989.8,165.3,1982.5,125.9z"/>
	<path class="st1" d="M2369.7,416.3c-7.1,3.9-9.8,10.6-11.5,18c-0.8,3.4-0.9,7.1-3.2,10.1c-4.2-5.6-6.8-12-10.1-18.1
		c-8.3-14.9-16.7-29.8-24.9-44.7c-8.5-15.4-16.7-30.9-25.1-46.3c-8.2-15-16.7-29.8-25-44.8c-6.4-11.6-12.4-23.4-18.7-35
		c-6.8-12.3-13.9-24.4-20.7-36.6c-4.5-8-8.6-16.2-13-24.3c-4.7-8.6-9.5-17.2-14.2-25.8c-4.7-8.6-9.3-17.3-14-25.9
		c-0.3-0.3-0.6-0.5-0.8-0.8c0,0.4,0,0.8,0,1.2c0,93.1,0,186.3,0,279.4c0,9.8,8.2,20.1,18,22.5c3,0.8,2.7,2.6,2.8,4.8
		c0.1,3-2,2-3.4,2.1c-14,0.1-28,0.1-42,0c-1.3,0-3.7,1.2-3.6-1.8c0.1-2-0.7-4,2.5-5c10.9-3.4,18.5-14.3,18.5-25.7
		c0-95.6,0-191.3,0-286.9c0-10.6-9-22.1-19.3-24.4c-3.1-0.7-1.3-2.9-1.6-4.3c-0.4-1.6-0.1-2.8,2.2-2.8c17.5,0.1,35,0.1,52.5,0
		c2.1,0,2.7,1.2,3.5,2.7c12.2,22.2,24.5,44.4,36.7,66.6c22.2,40.1,44.5,80.2,66.7,120.3c12.5,22.6,24.9,45.3,37.4,68
		c0.6,1.1,1.4,2.2,2.2,3.5c1.1-1.2,0.6-2.5,0.7-3.7c0-75.3,0.1-150.6,0-225.9c0-10.1-5.7-17.5-13.6-23.2c-1.3-1-2.9-1.9-4.6-1.6
		c-3.8,0.8-3.5-1.5-3.8-4c-0.3-3.3,1.8-2.9,3.8-2.9c14.3,0,28.7,0,43,0c1.6,0,3.8-1,4,2.2c0.2,2.6-0.6,3.9-3,4.6
		c-11.2,3.4-18,12.6-18,24.2C2369.7,227,2369.7,321.7,2369.7,416.3z"/>
	<path class="st1" d="M2425.2,143.4c4.5-11.3,8.8-22,13.2-32.7c1-2.3,2.5-4.4,3.1-7c0.6-2.3,2.9-2.5,5.2-2.4
		c20.8,0.1,41.7,0.1,62.5,0.1c43.8,0,87.6,0.1,131.5-0.1c4.4,0,6.5,1.1,8.2,5.3c4.8,12.2,10.2,24.2,15.6,36.8c-6.4,0-12.2,0-18,0
		c-1.1,0-1.7-0.1-2.4-1.6c-4.2-10.4-8.8-20.7-13.2-31.1c-0.8-1.8-1.9-2.3-3.8-2.2c-18,0.1-36,0.1-54,0c-3.4,0-3.2,1.7-3.2,4
		c0,16.8,0,33.7,0,50.5c0,85.8,0,171.6,0,257.4c0,12.5,6.3,21.4,18.4,25.3c2.7,0.9,2.7,2.7,2.7,4.9c-0.1,3-2.3,1.9-3.6,1.9
		c-28.7,0.1-57.3,0.1-86,0c-1.3,0-3.6,1.1-3.5-2c0.1-2.1-0.4-3.8,2.7-4.8c12-3.7,19.1-13.8,19.1-26.3c0-101.8,0-203.6,0.1-305.4
		c0-4.7-1.3-5.7-5.8-5.6c-16.8,0.3-33.7,0.2-50.5,0c-3.2,0-4.8,0.9-6.1,4.1c-3.8,9.5-8.3,18.8-12.4,28.2c-0.6,1.4-0.8,2.7-2.9,2.7
		C2436.7,143.3,2431,143.4,2425.2,143.4z"/>
	<path class="st1" d="M1524.4,410.3c-5.7,13.7-11.1,26.6-16.5,39.6c-0.8,1.9-1.9,2.5-4,2.5c-62.5-0.1-125-0.1-187.4-0.1
		c-1.5,0-3.6,0.8-3.3-2.1c0.2-1.9-0.5-3.7,2.3-4.7c11.6-4,18.7-14.3,18.7-26.5c0-95,0-189.9,0-284.9c0-12.5-7.4-22.4-19.5-25.7
		c-2.4-0.7-1.4-2.3-1.4-3.5c0-1.2-1.1-3.2,1.4-3.5c1-0.1,2,0,3,0c27.7,0,55.3,0,83,0.1c1.6,0,4.5-1.7,4.6,2.3c0.1,3.2-1.2,4-4.1,4.5
		c-8,1.2-16.8,13.1-16.8,22.6c0,36,0,72,0,107.9c0,67,0,133.9-0.1,200.9c0,4.1,1,5.2,5.2,5.2c31.8-0.2,63.6-0.1,95.5-0.1
		c3,0,4.8-0.5,6.1-3.5c3.7-8.7,7.8-17.2,11.4-25.9c1.4-3.4,2.6-5.8,7.1-5.3C1514.1,410.7,1519,410.3,1524.4,410.3z"/>
	<path class="st1" d="M1606.5,101.3c14,0,28,0,42,0.1c1.3,0,3.5-1.2,3.6,1.8c0.1,2.2,0.1,4.1-2.6,5c-12.9,4.5-18.4,12.3-18.4,25.7
		c0,95.9,0,191.9,0,287.8c0,8.2,3.9,14.1,9.9,19.2c2.8,2.4,5.4,4.4,9.2,4.9c2.9,0.4,1.7,3.1,1.9,4.9c0.2,2.3-1.6,1.6-2.8,1.6
		c-28.8,0-57.6,0-86.5,0c-1.2,0-2.9,0.5-2.7-1.7c0.2-1.8-1-4.4,1.9-5c10.5-2.2,14.3-10.8,18.6-19c0.8-1.6,0.5-3.3,0.5-4.9
		c0-96.6,0-193.2,0.1-289.8c0-8.1-8.9-23.2-19.1-23.6c-3.7-0.1-1.5-3-1.9-4.5c-0.7-2.4,1-2.6,2.9-2.5
		C1577.6,101.4,1592.1,101.3,1606.5,101.3z"/>
	<path class="st1" d="M884.1,440.6c0.2,4.5-2.8,7.7-4.6,11.4c-0.8-2.5-2.7-0.7-4.1-1c-24.6-5.4-46.2-16.5-64.8-33.6
		c-14.7-13.5-26.8-29-36.4-46.5c-5.9-10.8-11-22-14.9-33.8c-3.9-12-6.5-24.2-8.1-36.7c-1.6-12.2-1.3-24.4-1-36.6
		c0.4-20.6,5.7-40.3,13.4-59.1c9.8-23.9,23.3-45.7,42-64c20.1-19.7,43.7-33.3,71.7-38c18-3,35.9-2.1,53.3,3.7
		c4.6,1.5,7.4,0.4,10-3.1c0.7-0.9,1.5-1.8,2-2.8c1.1-2.2,3.1-2.2,5-1.9c2.6,0.4,1.4,2.7,1.4,4c0.1,13.7,0.1,27.3,0,41
		c0,1.8,0.8,4-2.6,4c-3,0-5.3-0.5-5.4-3.9c-0.1-7.3-3.1-13.7-5.8-20.3c-2.7-6.6-6.6-10.3-14-11.7c-10.5-1.9-20.9-3.3-31.3-1.2
		c-15.8,3.1-29.9,9.3-41.8,21.1c-8.7,8.7-16.3,18-22.2,28.6c-9.4,16.7-15.5,34.6-19.5,53.2c-6.6,30.3-7.9,61-5.2,91.7
		c2.5,28.9,8.6,57.1,21.9,83.2c11.4,22.2,26.8,40.7,50.8,50.2C877.1,439.9,880.3,442.5,884.1,440.6z"/>
	<path class="st1" d="M1817.5,363.2c-0.5,1.2-1.4,1.7-2.6,2.1c-14.2,5.4-27.1,13-39.7,21.2c-1.2,0.8-2.4,1.7-4,1.7
		c-1.8-4.9-1.6-10.2-2.8-15.3c-2.4-10-4.1-20.2-5.8-30.3c-1.8-10-4-19.9-5.3-30c-1-7.8-3-15.5-4.4-23.2c-1.6-8.5-2.9-17.1-4.5-25.6
		c-1.9-9.9-3.9-19.8-5.8-29.7c-1.2-6.1-2.3-12.1-3.4-18.2c-1.1-6.3-1.8-12.6-2.9-18.8c-1.2-6.5-2.7-13-4-19.5
		c-2.2-11.5-4.4-23-6.6-34.5c-0.9-4.5-1.5-9.1-2.6-13.5c-2.4-10.5-8.3-18.3-19-21.2c-3.8-1.1-1.4-3.2-1.9-4.8
		c-0.7-2.2,1.1-2.2,2.7-2.2c6,0,12,0,18,0c22.8,0,45.6,0,68.5,0.1c1.6,0,4.6-1.9,4.9,2.1c0.2,2.9-0.4,4.3-3.7,5
		c-10.2,2.2-14.8,10.4-17.9,19.1c-1.1,3.3,0.8,7.6,1.5,11.5c3.9,20.9,8,41.8,11.8,62.7c4.8,26.4,9.4,52.9,14.2,79.4
		c4.1,22.6,8.5,45.1,12.7,67.6C1815.8,353.6,1816.6,358.4,1817.5,363.2z"/>
	<path class="st0" d="M1332.4,696.8c-0.9-8.3,1.5-15.4,2.3-22.7c0.5-4.4,1-8.8,1.4-13.2c0.3-3.3-1.8-3.2-3.8-2.2
		c-2.2,1.1-4.5,2.3-6.1,4.1c-4.9,5.4-10.5,9.9-15.3,15.4c-5,5.8-10.1,11.7-15,17.6c-7.4,8.8-14.6,17.7-23.3,25.3
		c-7.4,6.5-14.8,12.9-25,15.1c-7.3,1.5-18.2-2-23.2-7.7c-10.1-11.7-8.3-24-2.5-36.7c7.9-17.2,18.7-32.4,32-45.6
		c13.4-13.3,27.7-25.7,46.5-30.6c11.4-2.9,23-3.7,32.5,5.9c2.2,2.2,3.3,5,3.9,7.9c0.5,2.3,0.2,4.9-2.6,5.7
		c-17.2,5-31.2,15.5-45.1,26.1c-15.1,11.6-29,24.5-39.3,40.8c-3,4.7-5,9.8-5.7,15.3c-0.2,1.5-0.4,3.2,1,4.2c1.6,1.2,3.2,0.3,4.6-0.6
		c5.8-3.4,10.6-8,15.4-12.6c16.3-15.7,32-32.1,49.1-47c7.3-6.4,14.8-12.7,23.4-16.9c13.2-6.4,21.6-1.5,23.2,15.6
		c0.9,9.8-2.7,19.3-4.3,28.9c-0.9,5.5-2.5,10.9-0.8,16.7c2.1,6.9,6.2,9.7,13.4,8.1c12-2.6,22.2-9,32.2-15.7
		c16.1-10.9,31.4-22.9,46.1-35.8c7.8-6.9,15.7-13.7,23.1-21.1c0.5-0.5,0.9-1.1,1.5-1.3c1.7-0.8,3.6-2.7,5.4-1
		c1.4,1.4-0.3,3.1-1.1,4.4c-3.3,5.3-7.4,9.9-11.8,14.4c-5.8,5.9-12.1,11.1-18.1,16.8c-6.9,6.6-15.4,11.5-22.9,17.5
		c-15.1,11.8-31.9,20.7-49.2,28.6c-8.3,3.8-17.9,4.8-27.2,3.4c-8.2-1.3-15.5-13.1-15-23.1C1332.3,699.2,1332.4,697.6,1332.4,696.8z"
		/>
	<path class="st1" d="M901.2,452.2c1.7-3,0.7-7.8,5.9-8.3c14.3-0.1,26.8-5,38.3-13.3c2.3-1.7,1.7-3.4,1.7-5.1
		c0.1-31.5,0.1-63,0.1-94.5c0-12.7-0.1-25.3,0.1-38c0.1-3.4-0.8-4.5-4.3-4.4c-16.2,0.2-32.3,0-48.5,0.1c-2.8,0-4.4-0.1-4.5-3.8
		c-0.1-4.1,2.1-3.6,4.6-3.6c39.8,0,79.6,0,119.5,0.1c1.6,0,3.9-1.4,4.3,2.3c0.3,3.2-1.4,4-3.6,4.6c-9.7,2.7-17.4,12.8-17.4,23
		c0,45.5,0,91,0,136.4c0,6.6-1.7,7.5-7.8,4.4c-7.7-3.8-15.7-6.9-24-9.2c-10-2.7-19.5-2.2-28.5,2.6c-5.5,2.9-11.5,3.2-17.2,4.4
		C913.7,451,907.6,453.3,901.2,452.2z"/>
	<path class="st1" d="M1776,413.4c9.5-8.4,20.3-14.8,31.3-21c4.6-2.6,9-5.6,14.3-6.8c2.6,13.9,5.1,27.8,7.7,41.7c0.3,0,0.5,0,0.8,0
		c3-16.3,6-32.6,9-48.9c3.1-0.8,6.1-1.7,9.2-2.5c-3.2,17.3-6.3,34.6-9.5,52c-1.3,6.9-2.6,13.7-3.8,20.6c-0.5,2.7-1.4,4.1-4.7,4
		c-14.5-0.2-29-0.2-43.5,0c-3.1,0-3.8-1-4.3-3.7C1780.5,436.9,1778.2,425.1,1776,413.4z"/>
	<path class="st1" d="M1852.2,357.3c-3.3,1.1-6.6,2-9.9-0.1c1.7-7.8,3.4-15.6,5-23.5c1.6-8.1,2.9-16.3,4.4-24.4
		c1.9-9.9,4.1-19.8,5.5-29.8c1.1-8,3.3-15.8,4.8-23.7c1.2-5.9,1.9-11.8,3.1-17.7c1.8-8.1,3.3-16.4,4.7-24.5c1.7-9.5,3.7-19,5.3-28.5
		c1.6-9.7,3.7-19.3,5.5-28.9c1.2-6.5,2.5-13,3.3-19.5c0.2-1.9,1.5-3,1.6-5c0.5-10.1-7.8-20.2-17.7-23.3c-3.4-1.1-2.9-3-2.9-5.2
		c0.1-3.3,2.6-1.9,4.1-1.9c14.7-0.1,29.3-0.1,44,0c1.8,0,4.2-0.8,4,2.6c-0.2,2.5-0.2,3.9-3.5,4.6c-10.6,2.2-15.8,10.5-18.2,19.9
		c-3.4,13.1-5.7,26.5-8,39.9c-3.4,19.5-7.2,38.9-11,58.3c-4,20.4-7.3,40.9-11.2,61.4c-4.2,22.2-8.6,44.3-12.9,66.5
		C1852,355.2,1852.2,356.3,1852.2,357.3z"/>
	<path class="st0" d="M2188.4,143.4c0-0.4,0-0.8,0-1.2c0.3,0.3,0.6,0.5,0.8,0.8C2189,143.1,2188.7,143.3,2188.4,143.4z"/>
	<path class="st2" d="M2857.1,655.3c0.1-0.4,0.2-0.8,0.3-1.2c0.1,0.1,0.2,0.2,0.4,0.3C2857.5,654.6,2857.3,654.9,2857.1,655.3
		C2857,655.2,2857.1,655.3,2857.1,655.3z"/>
	<polygon class="st2" points="2322.1,567.3 2322.3,567.1 2322,567.3 	"/>
	<polygon class="st2" points="3235,650.3 3235.3,650 3235,650.2 	"/>
	<path class="st2" d="M1817.1,736.2c0.2-0.1,0.4-0.3,0.6-0.4c-0.1,0.2-0.3,0.4-0.4,0.6C1817.2,736.3,1817.1,736.2,1817.1,736.2z"/>
	<path class="st2" d="M828.2,677.3c-0.1,0.8-0.2,1.5-0.3,2.5C827,678.6,827.1,677.9,828.2,677.3
		C828.1,677.2,828.2,677.3,828.2,677.3z"/>
	<path class="st2" d="M843.1,671.2c0,0.1-0.1,0.3-0.1,0.4C843.1,671.5,843.1,671.4,843.1,671.2C843.2,671.3,843.1,671.2,843.1,671.2
		z"/>
</g>
</svg>
