<?xml version="1.0" encoding="utf-8"?>
<!-- Generator: Adobe Illustrator 26.2.1, SVG Export Plug-In . SVG Version: 6.00 Build 0)  -->
<svg version="1.1" id="Layer_1" xmlns="http://www.w3.org/2000/svg" xmlns:xlink="http://www.w3.org/1999/xlink" x="0px" y="0px"
	 width="423px" height="106px" viewBox="0 0 423 106" style="enable-background:new 0 0 423 106;" xml:space="preserve">
<style type="text/css">
	.st0{fill:#010101;}
</style>
<g>
	<g>
		<path class="st0" d="M19.2,76.3V75c2.9,0,4.1-3.9,4.1-3.9v-58c0,0-1.2-3.9-4.1-3.9V8H37v1.2c-2.9,0-4,3.9-4,3.9v61.7h20.5l3-6.7
			h3.8l-3.4,8.2H19.2z"/>
		<path class="st0" d="M68.3,76.3v-1c2.3,0,3.2-3,3.2-3V26.6c0,0-0.9-3-3.2-3v-1h14.1v1c-2.3,0-3.2,3-3.2,3v45.6c0,0,1,3,3.2,3v1
			H68.3z"/>
		<path class="st0" d="M103.2,76.3l-9.1-49.5c-0.1-0.3-1.1-3.1-3.3-3.1v-1h14.4v1c-2.2,0-3.1,2.5-3.3,3.1l8.4,46l8.7-45.9
			c0-0.3-1-3.1-3.3-3.1v-1h8v1c-2.2,0-3.1,2.6-3.3,3.1L111,76.3H103.2z"/>
		<path class="st0" d="M132.1,76.3v-1c2.3,0,3.2-3,3.2-3V26.6c0,0-0.9-3-3.2-3v-1h14.1v1c-2.3,0-3.2,3-3.2,3v45.6c0,0,1,3,3.2,3v1
			H132.1z"/>
		<path class="st0" d="M185,76.3l-26.1-47.6v43.5c0,0,0.9,3,3.2,3v1h-7.5v-1c2.3,0,3.2-3,3.2-3V26.6c-0.8-1.4-1.3-3-3.2-3v-1h8.7
			l22.2,40.1V26.6c0,0-0.9-3-3.2-3v-1h7.6v1c-2.3,0-3.2,3-3.2,3v49.7H185z"/>
		<path class="st0" d="M232.9,76.4c-1.2-0.8-4-1.9-6-1.9c-0.4,0-0.8,0-1.1,0.2c-2.6,1.1-5.1,1.6-7.6,1.6
			c-12.7,0-22.5-13.6-22.5-26.9c0-13.2,9.8-26.8,22.5-26.8c1.6,0,3.3,0.2,4.9,0.7c0.3,0.1,0.7,0.2,1,0.4c0.8-0.4,1.3-1.4,1.3-1.4
			h0.8v7.5h-1.1c0-1.5-0.7-3.6-1.7-5c-0.3-0.2-0.7-0.3-1-0.4c-1.1-0.3-2.3-0.4-3.3-0.4c-10.7,0-15.8,12.6-15.8,25.5
			c0,13,5,25.6,15.7,25.6c1,0,2.1-0.1,3.3-0.4c1.5-0.4,2.8-1.3,3.4-1.8V51.3h-8.7v-1.2h19.6v1c-2.3,0-3.2,3.1-3.2,3.1v22.3H232.9z"
			/>
		<path class="st0" d="M246,71.7c-0.9,0.9-1.3,3.9-1.3,4.5h-1V66.1h1.1c0,2.9,1.4,4.6,3.8,6.1c2.3,1.4,5.2,2.1,8.1,2.1
			c2.2,0,4.3-0.4,6.3-1.2c4.3-1.8,6.4-5,6.4-8.3c0-3.1-1.8-6.2-5.6-8.4c-4.4-2.5-10.6-3.6-14.9-7.2c-3.5-3-5.2-7-5.2-11
			c0-5.3,2.9-10.6,8.5-13.4c2.6-1.3,5.6-2.1,8.7-2.1c3,0,6.1,0.8,8.9,2.3c0.2-0.3,0.3-0.9,0.5-1.7h1v8.2H270v-0.1
			c0-4.8-4-7.5-8.1-7.5c-7.4,0-12.3,4.6-12.3,9.9c0,1.5,0.4,3,1.2,4.5c4.8,8.6,16,7.7,21.5,14.9c1.9,2.5,2.8,5.5,2.8,8.4
			c0,4.1-1.8,8.1-5.4,10.8c-2.3,1.8-5.1,3-8.1,3.5c-1,0.2-2,0.3-3,0.3C254.1,76.2,249.2,74.7,246,71.7z"/>
		<path class="st0" d="M290.3,76.3v-1c2.3,0,3.2-3,3.2-3V23.7h-9.2l-2.3,5.3H279l2.7-6.4h31.1l2.8,6.4h-3l-2.3-5.3h-9.2v48.5
			c0,0,1,3,3.2,3v1H290.3z"/>
		<path class="st0" d="M317.6,49.4c0-14.8,9.8-26.8,21.9-26.8c12.1,0,21.9,12,21.9,26.8c0,14.9-9.8,26.9-21.9,26.9
			C327.4,76.3,317.6,64.2,317.6,49.4z M353.7,49.4c0-14.3-6.4-25.8-14.2-25.8c-7.8,0-14.2,11.6-14.2,25.8c0,14.3,6.3,25.9,14.2,25.9
			C347.3,75.2,353.7,63.7,353.7,49.4z"/>
		<path class="st0" d="M399,76.3l-26.1-47.6v43.5c0,0,0.9,3,3.2,3v1h-7.5v-1c2.3,0,3.2-3,3.2-3V26.6c-0.8-1.4-1.3-3-3.2-3v-1h8.7
			l22.2,40.1V26.6c0,0-0.9-3-3.2-3v-1h7.6v1c-2.3,0-3.2,3-3.2,3v49.7H399z"/>
	</g>
	<g>
		<path class="st0" d="M91.8,98v-0.2c0.5,0,0.7-0.6,0.7-0.6v-9.4c0,0-0.2-0.6-0.7-0.6v-0.2H95c2.5,0,3.7,2.5,3.7,5.2
			c0,2.9-1.4,6-3.9,6H91.8z M97.1,92c0-2.5-0.8-4.9-2.6-4.9h-0.4v10.6h0.3C96.1,97.8,97.1,94.8,97.1,92z"/>
		<path class="st0" d="M105.3,98v-0.2c0.5,0,0.7-0.6,0.7-0.6v-9.4c0,0-0.2-0.6-0.7-0.6v-0.2h6.1l0.6,1.3h-0.6l-0.5-1.1h-3.3v6.6h2.8
			c0.2-0.1,0.4-0.3,0.4-0.5h0.2v1.3h-0.2c0-0.3-0.2-0.4-0.4-0.6h-2.8v3.8h3.3l0.5-1.1h0.6l-0.6,1.3H105.3z"/>
		<path class="st0" d="M118.9,97.1c-0.2,0.2-0.3,0.8-0.3,0.9h-0.2v-2.1h0.2c0,0.6,0.3,1,0.8,1.3c0.5,0.3,1.1,0.4,1.7,0.4
			c0.4,0,0.9-0.1,1.3-0.3c0.9-0.4,1.3-1,1.3-1.7c0-0.6-0.4-1.3-1.2-1.7c-0.9-0.5-2.2-0.7-3.1-1.5c-0.7-0.6-1.1-1.4-1.1-2.3
			c0-1.1,0.6-2.2,1.8-2.8c0.5-0.3,1.2-0.4,1.8-0.4c0.6,0,1.3,0.2,1.8,0.5c0-0.1,0.1-0.2,0.1-0.3h0.2v1.7h-0.2v0c0-1-0.8-1.6-1.7-1.6
			c-1.5,0-2.6,1-2.6,2.1c0,0.3,0.1,0.6,0.3,0.9c1,1.8,3.3,1.6,4.5,3.1c0.4,0.5,0.6,1.1,0.6,1.7c0,0.8-0.4,1.7-1.1,2.2
			c-0.5,0.4-1.1,0.6-1.7,0.7c-0.2,0-0.4,0.1-0.6,0.1C120.6,98,119.6,97.7,118.9,97.1z"/>
		<path class="st0" d="M133.2,98v-0.2c0.5,0,0.7-0.6,0.7-0.6V87.1H132l-0.5,1.1h-0.6l0.6-1.3h6.4l0.6,1.3h-0.6l-0.5-1.1h-1.9v10.1
			c0,0,0.2,0.6,0.7,0.6V98H133.2z"/>
		<path class="st0" d="M145,98v-0.2c0.5,0,0.7-0.6,0.7-0.6v-9.4c0,0-0.2-0.6-0.7-0.6v-0.2h2.9v0.2c-0.5,0-0.7,0.6-0.7,0.6v9.4
			c0,0,0.2,0.6,0.7,0.6V98H145z"/>
		<path class="st0" d="M161.1,98l-5.4-9.9v9c0,0,0.2,0.6,0.7,0.6V98h-1.6v-0.2c0.5,0,0.7-0.6,0.7-0.6v-9.4c-0.2-0.3-0.3-0.6-0.7-0.6
			v-0.2h1.8l4.6,8.3v-7.5c0,0-0.2-0.6-0.7-0.6v-0.2h1.6v0.2c-0.5,0-0.7,0.6-0.7,0.6V98H161.1z"/>
		<path class="st0" d="M172.2,98v-0.2c0.4,0,0.7-0.5,0.7-0.6l-0.5-2.7h-2.5l-0.5,2.7c0,0.1,0.2,0.7,0.7,0.7V98h-1.7v-0.2
			c0.4,0,0.7-0.5,0.7-0.6l1.9-10.3h2.4v0.2c-0.3,0-0.6,0.3-0.7,0.6l1.7,9.4c0,0.1,0.2,0.7,0.7,0.7V98H172.2z M171.1,87.6l-1.2,6.6
			h2.4L171.1,87.6z"/>
		<path class="st0" d="M182.3,98v-0.2c0.5,0,0.7-0.6,0.7-0.6V87.1H181l-0.5,1.1h-0.6l0.6-1.3h6.4l0.6,1.3h-0.6l-0.5-1.1h-1.9v10.1
			c0,0,0.2,0.6,0.7,0.6V98H182.3z"/>
		<path class="st0" d="M194,98v-0.2c0.5,0,0.7-0.6,0.7-0.6v-9.4c0,0-0.2-0.6-0.7-0.6v-0.2h2.9v0.2c-0.5,0-0.7,0.6-0.7,0.6v9.4
			c0,0,0.2,0.6,0.7,0.6V98H194z"/>
		<path class="st0" d="M203.3,92.4c0-3.1,2-5.5,4.5-5.5c2.5,0,4.5,2.5,4.5,5.5c0,3.1-2,5.6-4.5,5.6C205.3,98,203.3,95.5,203.3,92.4z
			 M210.8,92.4c0-3-1.3-5.4-2.9-5.4c-1.6,0-2.9,2.4-2.9,5.4c0,3,1.3,5.4,2.9,5.4C209.5,97.8,210.8,95.4,210.8,92.4z"/>
		<path class="st0" d="M225.3,98l-5.4-9.9v9c0,0,0.2,0.6,0.7,0.6V98H219v-0.2c0.5,0,0.7-0.6,0.7-0.6v-9.4c-0.2-0.3-0.3-0.6-0.7-0.6
			v-0.2h1.8l4.6,8.3v-7.5c0,0-0.2-0.6-0.7-0.6v-0.2h1.6v0.2c-0.5,0-0.7,0.6-0.7,0.6V98H225.3z"/>
		<path class="st0" d="M249,98v-0.2c0.4,0,0.7-0.5,0.7-0.6l-0.5-2.7h-2.5l-0.5,2.7c0,0.1,0.2,0.7,0.7,0.7V98h-1.7v-0.2
			c0.4,0,0.7-0.5,0.7-0.6l1.9-10.3h2.4v0.2c-0.3,0-0.6,0.3-0.7,0.6l1.7,9.4c0,0.1,0.2,0.7,0.7,0.7V98H249z M248,87.6l-1.2,6.6h2.4
			L248,87.6z"/>
		<path class="st0" d="M258.9,98v-0.2c0.5,0,0.7-0.6,0.7-0.6v-9.4c0,0-0.2-0.6-0.7-0.6v-0.2h3.6c2,0,3,1.5,3,3.1c0,1.6-1,3.2-3,3.2
			h-1.3v4c0,0,0.2,0.6,0.7,0.6V98H258.9z M263.8,90c0-1.4-0.6-2.9-1.9-2.9h-0.8v5.8h0.8C263.2,92.9,263.8,91.4,263.8,90z"/>
		<path class="st0" d="M272,98v-0.2c0.5,0,0.7-0.6,0.7-0.6v-9.4c0,0-0.2-0.6-0.7-0.6v-0.2h3.6c2,0,3,1.5,3,3.1c0,1.6-1,3.2-3,3.2
			h-1.3v4c0,0,0.2,0.6,0.7,0.6V98H272z M277,90c0-1.4-0.6-2.9-1.9-2.9h-0.8v5.8h0.8C276.3,92.9,277,91.4,277,90z"/>
		<path class="st0" d="M287.5,98v-0.2c0.4,0,0.7-0.5,0.7-0.6l-0.5-2.7h-2.5l-0.5,2.7c0,0.1,0.2,0.7,0.7,0.7V98h-1.7v-0.2
			c0.4,0,0.7-0.5,0.7-0.6l1.9-10.3h2.4v0.2c-0.3,0-0.6,0.3-0.7,0.6l1.7,9.4c0,0.1,0.2,0.7,0.7,0.7V98H287.5z M286.4,87.6l-1.2,6.6
			h2.4L286.4,87.6z"/>
		<path class="st0" d="M302.2,97.4c-0.9-1.1-1.5-3.4-2.4-4.3h-0.3v4c0,0,0.2,0.6,0.7,0.6V98h-2.9v-0.2c0.5,0,0.7-0.6,0.7-0.6v-9.4
			c0,0-0.2-0.6-0.7-0.6v-0.2h3.6c2,0,3,1.5,3,3.1c0,1.4-0.8,2.8-2.3,3.1c0.9,0.9,1.2,2.8,2.2,3.9c0.1,0.1,0.3,0.2,0.4,0.2
			c0.2,0,0.3-0.2,0.3-0.4c0-0.1,0-0.1,0-0.2h0.4c-0.2,0.9-0.8,1.4-1.5,1.4C303,98,302.6,97.8,302.2,97.4z M302.3,90
			c0-1.4-0.6-2.9-1.9-2.9h-0.8v5.8h0.8C301.6,92.9,302.3,91.4,302.3,90z"/>
		<path class="st0" d="M311.3,98v-0.2c0.5,0,0.7-0.6,0.7-0.6v-9.4c0,0-0.2-0.6-0.7-0.6v-0.2h6.1l0.6,1.3h-0.6l-0.5-1.1h-3.3v6.6h2.8
			c0.2-0.1,0.4-0.3,0.4-0.5h0.2v1.3h-0.2c0-0.3-0.2-0.4-0.4-0.6h-2.8v3.8h3.3l0.5-1.1h0.6l-0.6,1.3H311.3z"/>
		<path class="st0" d="M324.5,98v-0.2c0.5,0,0.7-0.6,0.7-0.6v-9.4c0,0-0.2-0.6-0.7-0.6v-0.2h2.9v0.2c-0.5,0-0.7,0.6-0.7,0.6v10h3.3
			l0.5-1.1h0.6l-0.6,1.3H324.5z"/>
	</g>
</g>
</svg>
